<mxfile host="app.diagrams.net" modified="2023-08-28T02:45:36.397Z" agent="Mozilla/5.0 (Windows NT 10.0; Win64; x64) AppleWebKit/537.36 (KHTML, like Gecko) Chrome/116.0.0.0 Safari/537.36 Edg/116.0.1938.54" etag="bw_nGPSoVYQYa-Pk1Rf7" version="21.6.9" type="github">
  <diagram id="prtHgNgQTEPvFCAcTncT" name="Page-1">
    <mxGraphModel dx="1367" dy="3305" grid="1" gridSize="10" guides="1" tooltips="1" connect="1" arrows="1" fold="1" page="1" pageScale="1" pageWidth="827" pageHeight="1169" math="0" shadow="0">
      <root>
        <mxCell id="0" />
        <mxCell id="1" parent="0" />
        <mxCell id="dNxyNK7c78bLwvsdeMH5-11" value="&lt;font style=&quot;font-size: 16px;&quot;&gt;CKKS-LeveledFHE&lt;/font&gt;" style="swimlane;html=1;startSize=40;horizontal=1;containerType=tree;glass=0;fillColor=#CCCCCC;" parent="1" vertex="1">
          <mxGeometry x="450" y="-1870" width="2030" height="1870" as="geometry">
            <mxRectangle x="40" y="80" width="90" height="30" as="alternateBounds" />
          </mxGeometry>
        </mxCell>
        <mxCell id="F4W6GdJIVFa8Bw8fIA7z-330" style="edgeStyle=orthogonalEdgeStyle;rounded=0;orthogonalLoop=1;jettySize=auto;html=1;" parent="dNxyNK7c78bLwvsdeMH5-11" source="F4W6GdJIVFa8Bw8fIA7z-154" target="F4W6GdJIVFa8Bw8fIA7z-241" edge="1">
          <mxGeometry relative="1" as="geometry" />
        </mxCell>
        <mxCell id="F4W6GdJIVFa8Bw8fIA7z-154" value="&lt;div style=&quot;font-family: Consolas, &amp;quot;Courier New&amp;quot;, monospace; line-height: 19px;&quot;&gt;&lt;div style=&quot;line-height: 19px;&quot;&gt;&lt;font style=&quot;font-size: 16px;&quot;&gt;Key Generation&lt;/font&gt;&lt;/div&gt;&lt;/div&gt;" style="swimlane;html=1;startSize=50;horizontal=1;containerType=tree;glass=0;align=center;verticalAlign=middle;" parent="dNxyNK7c78bLwvsdeMH5-11" vertex="1">
          <mxGeometry x="460" y="1110" width="1240" height="670" as="geometry">
            <mxRectangle x="1235" y="880" width="190" height="30" as="alternateBounds" />
          </mxGeometry>
        </mxCell>
        <mxCell id="F4W6GdJIVFa8Bw8fIA7z-186" value="&lt;div style=&quot;font-family: Consolas, &amp;quot;Courier New&amp;quot;, monospace; font-size: 14px; line-height: 19px;&quot;&gt;&lt;font color=&quot;#000000&quot;&gt;Key&lt;/font&gt;&lt;/div&gt;" style="swimlane;fontStyle=1;align=center;verticalAlign=top;childLayout=stackLayout;horizontal=1;startSize=26;horizontalStack=0;resizeParent=1;resizeParentMax=0;resizeLast=0;collapsible=1;marginBottom=0;whiteSpace=wrap;html=1;labelBorderColor=none;labelBackgroundColor=default;fillColor=none;fontColor=#333333;strokeColor=#666666;" parent="F4W6GdJIVFa8Bw8fIA7z-154" vertex="1">
          <mxGeometry x="450" y="364" width="190" height="70" as="geometry" />
        </mxCell>
        <mxCell id="F4W6GdJIVFa8Bw8fIA7z-187" value="&lt;div style=&quot;font-family: Consolas, &amp;quot;Courier New&amp;quot;, monospace; font-size: 14px; line-height: 19px;&quot;&gt;&lt;div style=&quot;line-height: 19px;&quot;&gt;&lt;font color=&quot;#000000&quot;&gt;Abstract interface class for &amp;nbsp;Keys&lt;/font&gt;&lt;/div&gt;&lt;/div&gt;" style="text;strokeColor=#666666;fillColor=none;align=left;verticalAlign=top;spacingLeft=4;spacingRight=4;overflow=hidden;rotatable=0;points=[[0,0.5],[1,0.5]];portConstraint=eastwest;whiteSpace=wrap;html=1;fontColor=#333333;" parent="F4W6GdJIVFa8Bw8fIA7z-186" vertex="1">
          <mxGeometry y="26" width="190" height="44" as="geometry" />
        </mxCell>
        <mxCell id="F4W6GdJIVFa8Bw8fIA7z-190" style="edgeStyle=orthogonalEdgeStyle;rounded=0;orthogonalLoop=1;jettySize=auto;html=1;entryX=0.5;entryY=1;entryDx=0;entryDy=0;" parent="F4W6GdJIVFa8Bw8fIA7z-154" source="F4W6GdJIVFa8Bw8fIA7z-188" target="F4W6GdJIVFa8Bw8fIA7z-186" edge="1">
          <mxGeometry relative="1" as="geometry">
            <Array as="points">
              <mxPoint x="875" y="514" />
              <mxPoint x="545" y="514" />
            </Array>
          </mxGeometry>
        </mxCell>
        <mxCell id="F4W6GdJIVFa8Bw8fIA7z-239" style="edgeStyle=orthogonalEdgeStyle;rounded=0;orthogonalLoop=1;jettySize=auto;html=1;exitX=0.5;exitY=0;exitDx=0;exitDy=0;entryX=0.498;entryY=0.982;entryDx=0;entryDy=0;entryPerimeter=0;" parent="F4W6GdJIVFa8Bw8fIA7z-154" source="F4W6GdJIVFa8Bw8fIA7z-191" target="F4W6GdJIVFa8Bw8fIA7z-187" edge="1">
          <mxGeometry relative="1" as="geometry">
            <Array as="points">
              <mxPoint x="415" y="514" />
              <mxPoint x="545" y="514" />
            </Array>
          </mxGeometry>
        </mxCell>
        <mxCell id="F4W6GdJIVFa8Bw8fIA7z-191" value="&lt;div style=&quot;font-family: Consolas, &amp;quot;Courier New&amp;quot;, monospace; font-size: 14px; line-height: 19px;&quot;&gt;&lt;div style=&quot;line-height: 19px;&quot;&gt;&lt;font style=&quot;&quot; color=&quot;#000000&quot;&gt;CryptoObject&lt;/font&gt;&lt;/div&gt;&lt;/div&gt;" style="swimlane;fontStyle=1;align=center;verticalAlign=top;childLayout=stackLayout;horizontal=1;startSize=26;horizontalStack=0;resizeParent=1;resizeParentMax=0;resizeLast=0;collapsible=1;marginBottom=0;whiteSpace=wrap;html=1;labelBorderColor=none;labelBackgroundColor=default;fillColor=none;fontColor=#333333;strokeColor=#666666;" parent="F4W6GdJIVFa8Bw8fIA7z-154" vertex="1">
          <mxGeometry x="324" y="529" width="190" height="120" as="geometry" />
        </mxCell>
        <mxCell id="F4W6GdJIVFa8Bw8fIA7z-192" value="&lt;div style=&quot;font-family: Consolas, &amp;quot;Courier New&amp;quot;, monospace; font-size: 14px; line-height: 19px;&quot;&gt;&lt;div style=&quot;line-height: 19px;&quot;&gt;&lt;font color=&quot;#000000&quot;&gt;A class to aid in referring to the crypto context that an object belongs to&lt;/font&gt;&lt;/div&gt;&lt;/div&gt;" style="text;strokeColor=#666666;fillColor=none;align=left;verticalAlign=top;spacingLeft=4;spacingRight=4;overflow=hidden;rotatable=0;points=[[0,0.5],[1,0.5]];portConstraint=eastwest;whiteSpace=wrap;html=1;fontColor=#333333;" parent="F4W6GdJIVFa8Bw8fIA7z-191" vertex="1">
          <mxGeometry y="26" width="190" height="94" as="geometry" />
        </mxCell>
        <mxCell id="F4W6GdJIVFa8Bw8fIA7z-201" style="edgeStyle=orthogonalEdgeStyle;rounded=0;orthogonalLoop=1;jettySize=auto;html=1;entryX=0.5;entryY=1;entryDx=0;entryDy=0;" parent="F4W6GdJIVFa8Bw8fIA7z-154" source="F4W6GdJIVFa8Bw8fIA7z-186" target="F4W6GdJIVFa8Bw8fIA7z-202" edge="1">
          <mxGeometry relative="1" as="geometry">
            <mxPoint x="765" y="304" as="sourcePoint" />
          </mxGeometry>
        </mxCell>
        <mxCell id="F4W6GdJIVFa8Bw8fIA7z-202" value="&lt;div style=&quot;font-family: Consolas, &amp;quot;Courier New&amp;quot;, monospace; font-size: 14px; line-height: 19px;&quot;&gt;&lt;div style=&quot;line-height: 19px;&quot;&gt;&lt;font color=&quot;#000000&quot;&gt;PublicKeyImpl&amp;lt;&lt;span style=&quot;font-weight: normal;&quot;&gt;Element&lt;/span&gt;&lt;span style=&quot;font-weight: normal;&quot;&gt;&amp;gt;&lt;/span&gt;&lt;/font&gt;&lt;/div&gt;&lt;/div&gt;" style="swimlane;fontStyle=1;align=center;verticalAlign=top;childLayout=stackLayout;horizontal=1;startSize=26;horizontalStack=0;resizeParent=1;resizeParentMax=0;resizeLast=0;collapsible=1;marginBottom=0;whiteSpace=wrap;html=1;labelBorderColor=none;labelBackgroundColor=default;fillColor=none;fontColor=#333333;strokeColor=#666666;" parent="F4W6GdJIVFa8Bw8fIA7z-154" vertex="1">
          <mxGeometry x="324" y="220" width="190" height="70" as="geometry" />
        </mxCell>
        <mxCell id="F4W6GdJIVFa8Bw8fIA7z-203" value="&lt;div style=&quot;font-family: Consolas, &amp;quot;Courier New&amp;quot;, monospace; font-size: 14px; line-height: 19px;&quot;&gt;&lt;div style=&quot;line-height: 19px;&quot;&gt;Class for puublic key&lt;br&gt;&lt;/div&gt;&lt;/div&gt;" style="text;strokeColor=#666666;fillColor=none;align=left;verticalAlign=top;spacingLeft=4;spacingRight=4;overflow=hidden;rotatable=0;points=[[0,0.5],[1,0.5]];portConstraint=eastwest;whiteSpace=wrap;html=1;fontColor=#333333;" parent="F4W6GdJIVFa8Bw8fIA7z-202" vertex="1">
          <mxGeometry y="26" width="190" height="44" as="geometry" />
        </mxCell>
        <mxCell id="F4W6GdJIVFa8Bw8fIA7z-204" style="edgeStyle=orthogonalEdgeStyle;rounded=0;orthogonalLoop=1;jettySize=auto;html=1;entryX=0.5;entryY=1;entryDx=0;entryDy=0;" parent="F4W6GdJIVFa8Bw8fIA7z-154" source="F4W6GdJIVFa8Bw8fIA7z-186" target="F4W6GdJIVFa8Bw8fIA7z-205" edge="1">
          <mxGeometry relative="1" as="geometry">
            <mxPoint x="795" y="278" as="sourcePoint" />
          </mxGeometry>
        </mxCell>
        <mxCell id="F4W6GdJIVFa8Bw8fIA7z-211" style="edgeStyle=orthogonalEdgeStyle;rounded=0;orthogonalLoop=1;jettySize=auto;html=1;exitX=0.5;exitY=0;exitDx=0;exitDy=0;dashed=1;dashPattern=8 8;" parent="F4W6GdJIVFa8Bw8fIA7z-154" source="F4W6GdJIVFa8Bw8fIA7z-205" edge="1">
          <mxGeometry relative="1" as="geometry">
            <mxPoint x="550" y="140" as="targetPoint" />
          </mxGeometry>
        </mxCell>
        <mxCell id="F4W6GdJIVFa8Bw8fIA7z-205" value="&lt;div style=&quot;font-family: Consolas, &amp;quot;Courier New&amp;quot;, monospace; font-size: 14px; line-height: 19px;&quot;&gt;&lt;div style=&quot;line-height: 19px;&quot;&gt;&lt;font color=&quot;#000000&quot;&gt;PrivateKeyImpl&lt;/font&gt;&amp;lt;&lt;span style=&quot;border-color: var(--border-color); color: rgb(0, 0, 0); font-weight: normal;&quot;&gt;Element&lt;/span&gt;&lt;span style=&quot;border-color: var(--border-color); color: rgb(0, 0, 0); font-weight: normal;&quot;&gt;&amp;gt;&lt;/span&gt;&lt;/div&gt;&lt;/div&gt;" style="swimlane;fontStyle=1;align=center;verticalAlign=top;childLayout=stackLayout;horizontal=1;startSize=26;horizontalStack=0;resizeParent=1;resizeParentMax=0;resizeLast=0;collapsible=1;marginBottom=0;whiteSpace=wrap;html=1;labelBorderColor=none;labelBackgroundColor=default;fillColor=none;fontColor=#333333;strokeColor=#666666;" parent="F4W6GdJIVFa8Bw8fIA7z-154" vertex="1">
          <mxGeometry x="600" y="220" width="190" height="70" as="geometry" />
        </mxCell>
        <mxCell id="F4W6GdJIVFa8Bw8fIA7z-206" value="&lt;div style=&quot;font-family: Consolas, &amp;quot;Courier New&amp;quot;, monospace; font-size: 14px; line-height: 19px;&quot;&gt;&lt;div style=&quot;line-height: 19px;&quot;&gt;&lt;div style=&quot;line-height: 19px;&quot;&gt;&lt;font color=&quot;#000000&quot;&gt;Class for private key&lt;/font&gt;&lt;/div&gt;&lt;/div&gt;&lt;/div&gt;" style="text;strokeColor=#666666;fillColor=none;align=left;verticalAlign=top;spacingLeft=4;spacingRight=4;overflow=hidden;rotatable=0;points=[[0,0.5],[1,0.5]];portConstraint=eastwest;whiteSpace=wrap;html=1;fontColor=#333333;" parent="F4W6GdJIVFa8Bw8fIA7z-205" vertex="1">
          <mxGeometry y="26" width="190" height="44" as="geometry" />
        </mxCell>
        <mxCell id="F4W6GdJIVFa8Bw8fIA7z-207" style="edgeStyle=orthogonalEdgeStyle;rounded=0;orthogonalLoop=1;jettySize=auto;html=1;entryX=0.5;entryY=1;entryDx=0;entryDy=0;dashed=1;dashPattern=8 8;" parent="F4W6GdJIVFa8Bw8fIA7z-154" source="F4W6GdJIVFa8Bw8fIA7z-202" target="F4W6GdJIVFa8Bw8fIA7z-208" edge="1">
          <mxGeometry relative="1" as="geometry">
            <mxPoint x="665" y="148" as="sourcePoint" />
            <Array as="points">
              <mxPoint x="419" y="180" />
              <mxPoint x="550" y="180" />
              <mxPoint x="550" y="140" />
            </Array>
          </mxGeometry>
        </mxCell>
        <mxCell id="F4W6GdJIVFa8Bw8fIA7z-208" value="&lt;div style=&quot;font-family: Consolas, &amp;quot;Courier New&amp;quot;, monospace; font-size: 14px; line-height: 19px;&quot;&gt;&lt;div style=&quot;line-height: 19px;&quot;&gt;&lt;font style=&quot;&quot; color=&quot;#000000&quot;&gt;KeyPair&amp;lt;DCRTPoly&amp;gt;&lt;/font&gt;&lt;/div&gt;&lt;/div&gt;" style="swimlane;fontStyle=1;align=center;verticalAlign=top;childLayout=stackLayout;horizontal=1;startSize=26;horizontalStack=0;resizeParent=1;resizeParentMax=0;resizeLast=0;collapsible=1;marginBottom=0;whiteSpace=wrap;html=1;labelBorderColor=none;labelBackgroundColor=default;fillColor=none;fontColor=#333333;strokeColor=#666666;" parent="F4W6GdJIVFa8Bw8fIA7z-154" vertex="1">
          <mxGeometry x="450" y="70" width="190" height="70" as="geometry" />
        </mxCell>
        <mxCell id="F4W6GdJIVFa8Bw8fIA7z-209" value="&lt;div style=&quot;font-family: Consolas, &amp;quot;Courier New&amp;quot;, monospace; font-size: 14px; line-height: 19px;&quot;&gt;&lt;div style=&quot;line-height: 19px;&quot;&gt;&lt;div style=&quot;line-height: 19px;&quot;&gt;&lt;font style=&quot;&quot; color=&quot;#000000&quot;&gt;The pair of publicKey &amp;amp;&amp;amp; secretKey class&lt;/font&gt;&lt;/div&gt;&lt;/div&gt;&lt;/div&gt;" style="text;strokeColor=#666666;fillColor=none;align=left;verticalAlign=top;spacingLeft=4;spacingRight=4;overflow=hidden;rotatable=0;points=[[0,0.5],[1,0.5]];portConstraint=eastwest;whiteSpace=wrap;html=1;fontColor=#333333;" parent="F4W6GdJIVFa8Bw8fIA7z-208" vertex="1">
          <mxGeometry y="26" width="190" height="44" as="geometry" />
        </mxCell>
        <mxCell id="F4W6GdJIVFa8Bw8fIA7z-215" value="" style="edgeStyle=orthogonalEdgeStyle;rounded=0;orthogonalLoop=1;jettySize=auto;html=1;exitX=0.5;exitY=0;exitDx=0;exitDy=0;" parent="F4W6GdJIVFa8Bw8fIA7z-154" source="F4W6GdJIVFa8Bw8fIA7z-188" target="F4W6GdJIVFa8Bw8fIA7z-216" edge="1">
          <mxGeometry relative="1" as="geometry">
            <Array as="points">
              <mxPoint x="875" y="514" />
              <mxPoint x="1120" y="514" />
            </Array>
          </mxGeometry>
        </mxCell>
        <mxCell id="F4W6GdJIVFa8Bw8fIA7z-223" value="" style="edgeStyle=orthogonalEdgeStyle;rounded=0;orthogonalLoop=1;jettySize=auto;html=1;" parent="F4W6GdJIVFa8Bw8fIA7z-154" source="F4W6GdJIVFa8Bw8fIA7z-188" target="F4W6GdJIVFa8Bw8fIA7z-224" edge="1">
          <mxGeometry relative="1" as="geometry" />
        </mxCell>
        <mxCell id="F4W6GdJIVFa8Bw8fIA7z-224" value="&lt;div style=&quot;font-family: Consolas, &amp;quot;Courier New&amp;quot;, monospace; font-size: 14px; line-height: 19px;&quot;&gt;BinFHEContext&lt;br&gt;&lt;/div&gt;" style="swimlane;fontStyle=1;align=center;verticalAlign=top;childLayout=stackLayout;horizontal=1;startSize=26;horizontalStack=0;resizeParent=1;resizeParentMax=0;resizeLast=0;collapsible=1;marginBottom=0;whiteSpace=wrap;html=1;labelBorderColor=none;labelBackgroundColor=default;fillColor=none;fontColor=#333333;strokeColor=#666666;" parent="F4W6GdJIVFa8Bw8fIA7z-154" vertex="1">
          <mxGeometry x="779.9999999999995" y="70" width="190" height="70" as="geometry" />
        </mxCell>
        <mxCell id="F4W6GdJIVFa8Bw8fIA7z-225" value="&lt;div style=&quot;font-family: Consolas, &amp;quot;Courier New&amp;quot;, monospace; font-size: 14px; line-height: 19px;&quot;&gt;+method(LWEPrivateKey)&lt;/div&gt;&lt;div style=&quot;font-family: Consolas, &amp;quot;Courier New&amp;quot;, monospace; font-size: 14px; line-height: 19px;&quot;&gt;&lt;span style=&quot;background-color: initial;&quot;&gt;:KeyGen()&lt;/span&gt;&lt;/div&gt;" style="text;strokeColor=#666666;fillColor=none;align=left;verticalAlign=top;spacingLeft=4;spacingRight=4;overflow=hidden;rotatable=0;points=[[0,0.5],[1,0.5]];portConstraint=eastwest;whiteSpace=wrap;html=1;fontColor=#333333;" parent="F4W6GdJIVFa8Bw8fIA7z-224" vertex="1">
          <mxGeometry y="26" width="190" height="44" as="geometry" />
        </mxCell>
        <mxCell id="F4W6GdJIVFa8Bw8fIA7z-216" value="&lt;div style=&quot;font-family: Consolas, &amp;quot;Courier New&amp;quot;, monospace; font-size: 14px; line-height: 19px;&quot;&gt;&lt;div style=&quot;line-height: 19px;&quot;&gt;&lt;font style=&quot;&quot; color=&quot;#000000&quot;&gt;LWEPrivateKeyImpl&lt;/font&gt;&lt;/div&gt;&lt;/div&gt;" style="swimlane;fontStyle=1;align=center;verticalAlign=top;childLayout=stackLayout;horizontal=1;startSize=26;horizontalStack=0;resizeParent=1;resizeParentMax=0;resizeLast=0;collapsible=1;marginBottom=0;whiteSpace=wrap;html=1;labelBorderColor=none;labelBackgroundColor=default;fillColor=none;fontColor=#333333;strokeColor=#666666;" parent="F4W6GdJIVFa8Bw8fIA7z-154" vertex="1">
          <mxGeometry x="1029.9999999999995" y="70" width="190" height="70" as="geometry" />
        </mxCell>
        <mxCell id="F4W6GdJIVFa8Bw8fIA7z-217" value="&lt;div style=&quot;font-family: Consolas, &amp;quot;Courier New&amp;quot;, monospace; font-size: 14px; line-height: 19px;&quot;&gt;&lt;div style=&quot;line-height: 19px;&quot;&gt;&lt;font color=&quot;#000000&quot;&gt;Class that stores the LWE scheme secret key&lt;/font&gt;&lt;/div&gt;&lt;/div&gt;" style="text;strokeColor=#666666;fillColor=none;align=left;verticalAlign=top;spacingLeft=4;spacingRight=4;overflow=hidden;rotatable=0;points=[[0,0.5],[1,0.5]];portConstraint=eastwest;whiteSpace=wrap;html=1;fontColor=#333333;" parent="F4W6GdJIVFa8Bw8fIA7z-216" vertex="1">
          <mxGeometry y="26" width="190" height="44" as="geometry" />
        </mxCell>
        <mxCell id="F4W6GdJIVFa8Bw8fIA7z-227" style="edgeStyle=orthogonalEdgeStyle;rounded=0;orthogonalLoop=1;jettySize=auto;html=1;exitX=0;exitY=0.5;exitDx=0;exitDy=0;entryX=1;entryY=0.5;entryDx=0;entryDy=0;dashed=1;dashPattern=1 4;" parent="F4W6GdJIVFa8Bw8fIA7z-154" source="F4W6GdJIVFa8Bw8fIA7z-217" target="F4W6GdJIVFa8Bw8fIA7z-225" edge="1">
          <mxGeometry relative="1" as="geometry" />
        </mxCell>
        <mxCell id="F4W6GdJIVFa8Bw8fIA7z-228" style="edgeStyle=orthogonalEdgeStyle;rounded=0;orthogonalLoop=1;jettySize=auto;html=1;exitX=0;exitY=0.5;exitDx=0;exitDy=0;entryX=1;entryY=0.5;entryDx=0;entryDy=0;dashed=1;dashPattern=1 4;" parent="F4W6GdJIVFa8Bw8fIA7z-154" source="F4W6GdJIVFa8Bw8fIA7z-225" target="F4W6GdJIVFa8Bw8fIA7z-209" edge="1">
          <mxGeometry relative="1" as="geometry" />
        </mxCell>
        <mxCell id="F4W6GdJIVFa8Bw8fIA7z-188" value="&lt;div style=&quot;font-family: Consolas, &amp;quot;Courier New&amp;quot;, monospace; font-size: 14px; line-height: 19px;&quot;&gt;Serializable&lt;/div&gt;" style="swimlane;fontStyle=1;align=center;verticalAlign=top;childLayout=stackLayout;horizontal=1;startSize=26;horizontalStack=0;resizeParent=1;resizeParentMax=0;resizeLast=0;collapsible=1;marginBottom=0;whiteSpace=wrap;html=1;labelBorderColor=none;labelBackgroundColor=default;fillColor=none;fontColor=#333333;strokeColor=#666666;" parent="F4W6GdJIVFa8Bw8fIA7z-154" vertex="1">
          <mxGeometry x="780" y="554" width="190" height="70" as="geometry" />
        </mxCell>
        <mxCell id="F4W6GdJIVFa8Bw8fIA7z-189" value="&lt;div style=&quot;font-family: Consolas, &amp;quot;Courier New&amp;quot;, monospace; font-size: 14px; line-height: 19px;&quot;&gt;Base class for OpenFHE serialization&lt;/div&gt;" style="text;strokeColor=#666666;fillColor=none;align=left;verticalAlign=top;spacingLeft=4;spacingRight=4;overflow=hidden;rotatable=0;points=[[0,0.5],[1,0.5]];portConstraint=eastwest;whiteSpace=wrap;html=1;fontColor=#333333;" parent="F4W6GdJIVFa8Bw8fIA7z-188" vertex="1">
          <mxGeometry y="26" width="190" height="44" as="geometry" />
        </mxCell>
        <mxCell id="F4W6GdJIVFa8Bw8fIA7z-234" value="&lt;p style=&quot;margin:0px;margin-top:4px;text-align:center;text-decoration:underline;&quot;&gt;&lt;b&gt;&lt;font color=&quot;#67ab9f&quot;&gt;Object:cc&lt;/font&gt;&lt;/b&gt;&lt;/p&gt;&lt;hr&gt;&lt;div style=&quot;font-family: Consolas, &amp;quot;Courier New&amp;quot;, monospace; font-size: 14px; line-height: 19px;&quot;&gt;&lt;font color=&quot;#67ab9f&quot;&gt;cc.EvalMultKeyGen(keyPair.secretKey)&lt;/font&gt;&lt;/div&gt;&lt;div style=&quot;font-family: Consolas, &amp;quot;Courier New&amp;quot;, monospace; font-size: 14px; line-height: 19px;&quot;&gt;&lt;font color=&quot;#67ab9f&quot;&gt;cc.EvalAtIndexKeyGen(keyPair.secretKey, indexList)&lt;/font&gt;&lt;/div&gt;" style="verticalAlign=top;align=left;overflow=fill;fontSize=12;fontFamily=Helvetica;html=1;whiteSpace=wrap;rounded=1;fillColor=#E6E6E6;" parent="F4W6GdJIVFa8Bw8fIA7z-154" vertex="1">
          <mxGeometry x="20" y="74" width="373.5" height="90" as="geometry" />
        </mxCell>
        <mxCell id="F4W6GdJIVFa8Bw8fIA7z-235" style="edgeStyle=orthogonalEdgeStyle;rounded=0;orthogonalLoop=1;jettySize=auto;html=1;exitX=0;exitY=0.5;exitDx=0;exitDy=0;entryX=1;entryY=0.5;entryDx=0;entryDy=0;dashed=1;dashPattern=1 2;" parent="F4W6GdJIVFa8Bw8fIA7z-154" source="F4W6GdJIVFa8Bw8fIA7z-209" target="F4W6GdJIVFa8Bw8fIA7z-234" edge="1">
          <mxGeometry relative="1" as="geometry">
            <mxPoint x="410.0000000000002" y="118.5" as="targetPoint" />
          </mxGeometry>
        </mxCell>
        <mxCell id="F4W6GdJIVFa8Bw8fIA7z-241" value="&lt;div style=&quot;font-family: Consolas, &amp;quot;Courier New&amp;quot;, monospace; line-height: 19px;&quot;&gt;&lt;div style=&quot;line-height: 19px;&quot;&gt;&lt;span style=&quot;font-size: 16px;&quot;&gt;Encryption &amp;amp;&amp;amp; Decryption&lt;/span&gt;&lt;/div&gt;&lt;/div&gt;" style="swimlane;html=1;startSize=50;horizontal=1;containerType=tree;glass=0;align=center;verticalAlign=middle;" parent="dNxyNK7c78bLwvsdeMH5-11" vertex="1">
          <mxGeometry x="465" y="610" width="1230" height="280" as="geometry">
            <mxRectangle x="1180" y="720" width="300" height="30" as="alternateBounds" />
          </mxGeometry>
        </mxCell>
        <mxCell id="F4W6GdJIVFa8Bw8fIA7z-264" style="edgeStyle=orthogonalEdgeStyle;rounded=0;orthogonalLoop=1;jettySize=auto;html=1;exitX=0;exitY=0.5;exitDx=0;exitDy=0;entryX=1;entryY=0.5;entryDx=0;entryDy=0;dashed=1;dashPattern=1 4;" parent="F4W6GdJIVFa8Bw8fIA7z-241" edge="1">
          <mxGeometry relative="1" as="geometry">
            <mxPoint x="969.9999999999995" y="117.99999999999977" as="targetPoint" />
          </mxGeometry>
        </mxCell>
        <mxCell id="F4W6GdJIVFa8Bw8fIA7z-364" style="edgeStyle=orthogonalEdgeStyle;rounded=0;orthogonalLoop=1;jettySize=auto;html=1;entryX=1.002;entryY=0.301;entryDx=0;entryDy=0;entryPerimeter=0;dashed=1;dashPattern=1 2;" parent="F4W6GdJIVFa8Bw8fIA7z-241" source="F4W6GdJIVFa8Bw8fIA7z-273" target="F4W6GdJIVFa8Bw8fIA7z-324" edge="1">
          <mxGeometry relative="1" as="geometry" />
        </mxCell>
        <mxCell id="F4W6GdJIVFa8Bw8fIA7z-273" value="&lt;div style=&quot;font-family: Consolas, &amp;quot;Courier New&amp;quot;, monospace; font-size: 14px; line-height: 19px;&quot;&gt;&lt;div style=&quot;line-height: 19px;&quot;&gt;&lt;font color=&quot;#000000&quot;&gt;PlaintextImpl&amp;lt;&lt;span style=&quot;font-weight: normal;&quot;&gt;Element&lt;/span&gt;&lt;span style=&quot;font-weight: normal;&quot;&gt;&amp;gt;&lt;/span&gt;&lt;/font&gt;&lt;/div&gt;&lt;/div&gt;" style="swimlane;fontStyle=1;align=center;verticalAlign=top;childLayout=stackLayout;horizontal=1;startSize=26;horizontalStack=0;resizeParent=1;resizeParentMax=0;resizeLast=0;collapsible=1;marginBottom=0;whiteSpace=wrap;html=1;labelBorderColor=none;labelBackgroundColor=default;fillColor=none;fontColor=#333333;strokeColor=#666666;" parent="F4W6GdJIVFa8Bw8fIA7z-241" vertex="1">
          <mxGeometry x="930" y="80" width="260" height="110" as="geometry" />
        </mxCell>
        <mxCell id="F4W6GdJIVFa8Bw8fIA7z-274" value="&lt;div style=&quot;font-family: Consolas, &amp;quot;Courier New&amp;quot;, monospace; font-size: 14px; line-height: 19px;&quot;&gt;&lt;div style=&quot;line-height: 19px;&quot;&gt;&lt;div style=&quot;line-height: 19px;&quot;&gt;&lt;span style=&quot;background-color: initial; color: rgb(0, 0, 0);&quot;&gt;+object:Plaintext,PlaintextDec1&lt;/span&gt;&lt;br&gt;&lt;/div&gt;&lt;div style=&quot;line-height: 19px;&quot;&gt;&lt;div&gt;&lt;br&gt;&lt;/div&gt;&lt;/div&gt;&lt;/div&gt;&lt;/div&gt;" style="text;strokeColor=#666666;fillColor=none;align=left;verticalAlign=top;spacingLeft=4;spacingRight=4;overflow=hidden;rotatable=0;points=[[0,0.5],[1,0.5]];portConstraint=eastwest;whiteSpace=wrap;html=1;fontColor=#333333;" parent="F4W6GdJIVFa8Bw8fIA7z-273" vertex="1">
          <mxGeometry y="26" width="260" height="34" as="geometry" />
        </mxCell>
        <mxCell id="F4W6GdJIVFa8Bw8fIA7z-355" value="&lt;font style=&quot;font-size: 14px;&quot; face=&quot;Consolas, Courier New, monospace&quot;&gt;represents plaintext in the OpenFHE library class&lt;/font&gt;" style="text;strokeColor=none;fillColor=none;align=left;verticalAlign=top;spacingLeft=4;spacingRight=4;overflow=hidden;rotatable=0;points=[[0,0.5],[1,0.5]];portConstraint=eastwest;whiteSpace=wrap;html=1;" parent="F4W6GdJIVFa8Bw8fIA7z-273" vertex="1">
          <mxGeometry y="60" width="260" height="50" as="geometry" />
        </mxCell>
        <mxCell id="F4W6GdJIVFa8Bw8fIA7z-367" style="edgeStyle=orthogonalEdgeStyle;rounded=0;orthogonalLoop=1;jettySize=auto;html=1;entryX=1;entryY=0.5;entryDx=0;entryDy=0;dashed=1;dashPattern=1 2;" parent="F4W6GdJIVFa8Bw8fIA7z-241" source="F4W6GdJIVFa8Bw8fIA7z-323" target="F4W6GdJIVFa8Bw8fIA7z-366" edge="1">
          <mxGeometry relative="1" as="geometry" />
        </mxCell>
        <mxCell id="F4W6GdJIVFa8Bw8fIA7z-323" value="&lt;div style=&quot;font-family: Consolas, &amp;quot;Courier New&amp;quot;, monospace; font-size: 14px; line-height: 19px;&quot;&gt;&lt;div style=&quot;line-height: 19px;&quot;&gt;&lt;div style=&quot;line-height: 19px;&quot;&gt;&lt;font style=&quot;&quot; color=&quot;#000000&quot;&gt;CryptoContextImpl&lt;/font&gt;&lt;/div&gt;&lt;/div&gt;&lt;/div&gt;" style="swimlane;fontStyle=1;align=center;verticalAlign=top;childLayout=stackLayout;horizontal=1;startSize=26;horizontalStack=0;resizeParent=1;resizeParentMax=0;resizeLast=0;collapsible=1;marginBottom=0;whiteSpace=wrap;html=1;labelBorderColor=none;labelBackgroundColor=default;fillColor=none;fontColor=#333333;strokeColor=#666666;" parent="F4W6GdJIVFa8Bw8fIA7z-241" vertex="1">
          <mxGeometry x="540" y="80" width="340" height="120" as="geometry" />
        </mxCell>
        <mxCell id="F4W6GdJIVFa8Bw8fIA7z-324" value="&lt;div style=&quot;font-family: Consolas, &amp;quot;Courier New&amp;quot;, monospace; font-size: 14px; line-height: 19px;&quot;&gt;&lt;div style=&quot;line-height: 19px;&quot;&gt;&lt;div style=&quot;line-height: 19px;&quot;&gt;&lt;font style=&quot;&quot; color=&quot;#000000&quot;&gt;+method(Plaintext):MakeCKKSPackedPlaintext&lt;br&gt;&lt;/font&gt;&lt;/div&gt;&lt;div style=&quot;line-height: 19px;&quot;&gt;&lt;font color=&quot;#000000&quot;&gt;+method(DecryptResult):Decrypt&lt;/font&gt;&lt;/div&gt;&lt;div style=&quot;line-height: 19px;&quot;&gt;&lt;font color=&quot;#000000&quot;&gt;+method(DecryptResult):Encrypt&lt;br&gt;&lt;/font&gt;&lt;/div&gt;&lt;div style=&quot;line-height: 19px;&quot;&gt;&lt;font style=&quot;&quot; color=&quot;#000000&quot;&gt;+method(DecryptResult):LevelReduce&lt;/font&gt;&lt;br&gt;&lt;/div&gt;&lt;/div&gt;&lt;/div&gt;" style="text;strokeColor=#666666;fillColor=none;align=left;verticalAlign=top;spacingLeft=4;spacingRight=4;overflow=hidden;rotatable=0;points=[[0,0.5],[1,0.5]];portConstraint=eastwest;whiteSpace=wrap;html=1;fontColor=#333333;" parent="F4W6GdJIVFa8Bw8fIA7z-323" vertex="1">
          <mxGeometry y="26" width="340" height="94" as="geometry" />
        </mxCell>
        <mxCell id="F4W6GdJIVFa8Bw8fIA7z-366" value="&lt;p style=&quot;margin:0px;margin-top:4px;text-align:center;text-decoration:underline;&quot;&gt;&lt;b&gt;&lt;font color=&quot;#67ab9f&quot;&gt;Object:cc&lt;/font&gt;&lt;/b&gt;&lt;/p&gt;&lt;hr&gt;&lt;div style=&quot;font-family: Consolas, &amp;quot;Courier New&amp;quot;, monospace; font-size: 14px; line-height: 19px;&quot;&gt;&lt;div style=&quot;line-height: 19px;&quot;&gt;&lt;font color=&quot;#67ab9f&quot;&gt;slot=cc-&amp;gt;GetEncodingParams()-&amp;gt;GetBatchSize()&lt;/font&gt;&lt;/div&gt;&lt;div style=&quot;line-height: 19px;&quot;&gt;&lt;div style=&quot;line-height: 19px;&quot;&gt;&lt;font color=&quot;#67ab9f&quot;&gt;plaintext = cc-&amp;gt;MakeCKKSPackedPlaintext(vectorOfInts)&lt;/font&gt;&lt;/div&gt;&lt;div style=&quot;line-height: 19px;&quot;&gt;&lt;div style=&quot;line-height: 19px;&quot;&gt;&lt;font color=&quot;#67ab9f&quot;&gt;ciphertext = cc-&amp;gt;Encrypt(keyPair.publicKey, plaintext)&lt;/font&gt;&lt;/div&gt;&lt;div style=&quot;line-height: 19px;&quot;&gt;&lt;div style=&quot;line-height: 19px;&quot;&gt;&lt;font color=&quot;#67ab9f&quot;&gt;ciphertext1 = cc-&amp;gt;LevelReduce(ciphertext1, nullptr, 1)&lt;/font&gt;&lt;/div&gt;&lt;/div&gt;&lt;/div&gt;&lt;/div&gt;&lt;div style=&quot;line-height: 19px;&quot;&gt;&lt;div style=&quot;line-height: 19px;&quot;&gt;&lt;font color=&quot;#67ab9f&quot;&gt;cc-&amp;gt;Decrypt(keyPair.secretKey, ciphertext1, &amp;amp;plaintextDec1)&lt;/font&gt;&lt;/div&gt;&lt;/div&gt;&lt;/div&gt;" style="verticalAlign=top;align=left;overflow=fill;fontSize=12;fontFamily=Helvetica;html=1;whiteSpace=wrap;rounded=1;fillColor=#E6E6E6;" parent="F4W6GdJIVFa8Bw8fIA7z-241" vertex="1">
          <mxGeometry x="30" y="69.88" width="460" height="140.25" as="geometry" />
        </mxCell>
        <mxCell id="F4W6GdJIVFa8Bw8fIA7z-426" value="&lt;div style=&quot;font-family: Consolas, &amp;quot;Courier New&amp;quot;, monospace; line-height: 19px;&quot;&gt;&lt;div style=&quot;line-height: 19px;&quot;&gt;&lt;span style=&quot;font-size: 16px;&quot;&gt;Add&lt;/span&gt;&lt;/div&gt;&lt;/div&gt;" style="swimlane;html=1;startSize=50;horizontal=1;containerType=tree;glass=0;align=center;verticalAlign=middle;" parent="dNxyNK7c78bLwvsdeMH5-11" vertex="1" collapsed="1">
          <mxGeometry x="70" y="200" width="300" height="30" as="geometry">
            <mxRectangle x="70" y="200" width="1330" height="230" as="alternateBounds" />
          </mxGeometry>
        </mxCell>
        <mxCell id="F4W6GdJIVFa8Bw8fIA7z-427" style="edgeStyle=orthogonalEdgeStyle;rounded=0;orthogonalLoop=1;jettySize=auto;html=1;exitX=0;exitY=0.5;exitDx=0;exitDy=0;entryX=1;entryY=0.5;entryDx=0;entryDy=0;dashed=1;dashPattern=1 4;" parent="F4W6GdJIVFa8Bw8fIA7z-426" edge="1">
          <mxGeometry relative="1" as="geometry">
            <mxPoint x="969.9999999999995" y="117.99999999999977" as="targetPoint" />
          </mxGeometry>
        </mxCell>
        <mxCell id="F4W6GdJIVFa8Bw8fIA7z-428" style="edgeStyle=orthogonalEdgeStyle;rounded=0;orthogonalLoop=1;jettySize=auto;html=1;entryX=1.002;entryY=0.301;entryDx=0;entryDy=0;entryPerimeter=0;dashed=1;dashPattern=1 2;" parent="F4W6GdJIVFa8Bw8fIA7z-426" source="F4W6GdJIVFa8Bw8fIA7z-429" target="F4W6GdJIVFa8Bw8fIA7z-434" edge="1">
          <mxGeometry relative="1" as="geometry" />
        </mxCell>
        <mxCell id="F4W6GdJIVFa8Bw8fIA7z-429" value="&lt;div style=&quot;font-family: Consolas, &amp;quot;Courier New&amp;quot;, monospace; font-size: 14px; line-height: 19px;&quot;&gt;&lt;div style=&quot;line-height: 19px;&quot;&gt;&lt;font color=&quot;#000000&quot;&gt;PlaintextImpl&amp;lt;&lt;span style=&quot;font-weight: normal;&quot;&gt;Element&lt;/span&gt;&lt;span style=&quot;font-weight: normal;&quot;&gt;&amp;gt;&lt;/span&gt;&lt;/font&gt;&lt;/div&gt;&lt;/div&gt;" style="swimlane;fontStyle=1;align=center;verticalAlign=top;childLayout=stackLayout;horizontal=1;startSize=26;horizontalStack=0;resizeParent=1;resizeParentMax=0;resizeLast=0;collapsible=1;marginBottom=0;whiteSpace=wrap;html=1;labelBorderColor=none;labelBackgroundColor=default;fillColor=none;fontColor=#333333;strokeColor=#666666;" parent="F4W6GdJIVFa8Bw8fIA7z-426" vertex="1">
          <mxGeometry x="1052" y="79.94" width="260" height="110" as="geometry" />
        </mxCell>
        <mxCell id="F4W6GdJIVFa8Bw8fIA7z-430" value="&lt;div style=&quot;font-family: Consolas, &amp;quot;Courier New&amp;quot;, monospace; font-size: 14px; line-height: 19px;&quot;&gt;&lt;div style=&quot;line-height: 19px;&quot;&gt;&lt;div style=&quot;line-height: 19px;&quot;&gt;&lt;span style=&quot;background-color: initial; color: rgb(0, 0, 0);&quot;&gt;+object:Plaintext&lt;/span&gt;&lt;/div&gt;&lt;/div&gt;&lt;/div&gt;" style="text;strokeColor=#666666;fillColor=none;align=left;verticalAlign=top;spacingLeft=4;spacingRight=4;overflow=hidden;rotatable=0;points=[[0,0.5],[1,0.5]];portConstraint=eastwest;whiteSpace=wrap;html=1;fontColor=#333333;" parent="F4W6GdJIVFa8Bw8fIA7z-429" vertex="1">
          <mxGeometry y="26" width="260" height="34" as="geometry" />
        </mxCell>
        <mxCell id="F4W6GdJIVFa8Bw8fIA7z-431" value="&lt;font style=&quot;font-size: 14px;&quot; face=&quot;Consolas, Courier New, monospace&quot;&gt;represents plaintext in the OpenFHE library class&lt;/font&gt;" style="text;strokeColor=none;fillColor=none;align=left;verticalAlign=top;spacingLeft=4;spacingRight=4;overflow=hidden;rotatable=0;points=[[0,0.5],[1,0.5]];portConstraint=eastwest;whiteSpace=wrap;html=1;" parent="F4W6GdJIVFa8Bw8fIA7z-429" vertex="1">
          <mxGeometry y="60" width="260" height="50" as="geometry" />
        </mxCell>
        <mxCell id="F4W6GdJIVFa8Bw8fIA7z-432" style="edgeStyle=orthogonalEdgeStyle;rounded=0;orthogonalLoop=1;jettySize=auto;html=1;entryX=1;entryY=0.5;entryDx=0;entryDy=0;dashed=1;dashPattern=1 2;" parent="F4W6GdJIVFa8Bw8fIA7z-426" source="F4W6GdJIVFa8Bw8fIA7z-433" target="F4W6GdJIVFa8Bw8fIA7z-435" edge="1">
          <mxGeometry relative="1" as="geometry" />
        </mxCell>
        <mxCell id="F4W6GdJIVFa8Bw8fIA7z-433" value="&lt;div style=&quot;font-family: Consolas, &amp;quot;Courier New&amp;quot;, monospace; font-size: 14px; line-height: 19px;&quot;&gt;&lt;div style=&quot;line-height: 19px;&quot;&gt;&lt;div style=&quot;line-height: 19px;&quot;&gt;&lt;font style=&quot;&quot; color=&quot;#000000&quot;&gt;CryptoContextImpl&lt;/font&gt;&lt;/div&gt;&lt;/div&gt;&lt;/div&gt;" style="swimlane;fontStyle=1;align=center;verticalAlign=top;childLayout=stackLayout;horizontal=1;startSize=26;horizontalStack=0;resizeParent=1;resizeParentMax=0;resizeLast=0;collapsible=1;marginBottom=0;whiteSpace=wrap;html=1;labelBorderColor=none;labelBackgroundColor=default;fillColor=none;fontColor=#333333;strokeColor=#666666;" parent="F4W6GdJIVFa8Bw8fIA7z-426" vertex="1">
          <mxGeometry x="662" y="79.94" width="340" height="120" as="geometry" />
        </mxCell>
        <mxCell id="F4W6GdJIVFa8Bw8fIA7z-434" value="&lt;div style=&quot;font-family: Consolas, &amp;quot;Courier New&amp;quot;, monospace; font-size: 14px; line-height: 19px;&quot;&gt;&lt;div style=&quot;line-height: 19px;&quot;&gt;&lt;div style=&quot;line-height: 19px;&quot;&gt;&lt;font style=&quot;&quot; color=&quot;#000000&quot;&gt;+method(Plaintext):MakeCKKSPackedPlaintext&lt;/font&gt;&lt;/div&gt;&lt;div style=&quot;line-height: 19px;&quot;&gt;&lt;font color=&quot;#000000&quot;&gt;+method(DecryptResult):Encrypt&lt;br&gt;&lt;/font&gt;&lt;/div&gt;&lt;div style=&quot;line-height: 19px;&quot;&gt;&lt;font style=&quot;&quot; color=&quot;#000000&quot;&gt;+method(DecryptResult):EvalAdd&lt;/font&gt;&lt;br&gt;&lt;/div&gt;&lt;div style=&quot;line-height: 19px;&quot;&gt;+method(DecryptResult):EvalAddInPlace&lt;font style=&quot;&quot; color=&quot;#000000&quot;&gt;&lt;br&gt;&lt;/font&gt;&lt;/div&gt;&lt;/div&gt;&lt;/div&gt;" style="text;strokeColor=#666666;fillColor=none;align=left;verticalAlign=top;spacingLeft=4;spacingRight=4;overflow=hidden;rotatable=0;points=[[0,0.5],[1,0.5]];portConstraint=eastwest;whiteSpace=wrap;html=1;fontColor=#333333;" parent="F4W6GdJIVFa8Bw8fIA7z-433" vertex="1">
          <mxGeometry y="26" width="340" height="94" as="geometry" />
        </mxCell>
        <mxCell id="F4W6GdJIVFa8Bw8fIA7z-435" value="&lt;p style=&quot;margin:0px;margin-top:4px;text-align:center;text-decoration:underline;&quot;&gt;&lt;b&gt;&lt;font color=&quot;#67ab9f&quot;&gt;Object:cc&lt;/font&gt;&lt;/b&gt;&lt;/p&gt;&lt;hr&gt;&lt;div style=&quot;font-family: Consolas, &amp;quot;Courier New&amp;quot;, monospace; font-size: 14px; line-height: 19px;&quot;&gt;&lt;div style=&quot;line-height: 19px;&quot;&gt;&lt;font color=&quot;#67ab9f&quot;&gt;slot=cc-&amp;gt;GetEncodingParams()-&amp;gt;GetBatchSize()&lt;/font&gt;&lt;/div&gt;&lt;div style=&quot;line-height: 19px;&quot;&gt;&lt;font color=&quot;#67ab9f&quot;&gt;plaintext1 = cc-&amp;gt;MakeCKKSPackedPlaintext(vectorOfInts1);&lt;/font&gt;&lt;/div&gt;&lt;div style=&quot;line-height: 19px;&quot;&gt;&lt;div style=&quot;line-height: 19px;&quot;&gt;&lt;div style=&quot;line-height: 19px;&quot;&gt;&lt;div style=&quot;&quot;&gt;&lt;font color=&quot;#67ab9f&quot;&gt;plaintext2 = cc-&amp;gt;MakeCKKSPackedPlaintext(vectorOfInts2);&lt;/font&gt;&lt;/div&gt;&lt;div style=&quot;&quot;&gt;&lt;font color=&quot;#67ab9f&quot;&gt;ciphertext1 = cc-&amp;gt;Encrypt(keyPair.publicKey, plaintext1);&lt;/font&gt;&lt;/div&gt;&lt;div style=&quot;&quot;&gt;&lt;font color=&quot;#67ab9f&quot;&gt;ciphertext2 = cc-&amp;gt;Encrypt(keyPair.publicKey, plaintext2);&lt;/font&gt;&lt;/div&gt;&lt;div style=&quot;&quot;&gt;&lt;div style=&quot;line-height: 19px;&quot;&gt;&lt;font style=&quot;&quot; color=&quot;#67ab9f&quot;&gt;ciphertextAdd = cc-&amp;gt;EvalAdd(ciphertext1, ciphertext2)&lt;/font&gt;&lt;/div&gt;&lt;/div&gt;&lt;/div&gt;&lt;/div&gt;&lt;/div&gt;&lt;/div&gt;" style="verticalAlign=top;align=left;overflow=fill;fontSize=12;fontFamily=Helvetica;html=1;whiteSpace=wrap;rounded=1;fillColor=#E6E6E6;" parent="F4W6GdJIVFa8Bw8fIA7z-426" vertex="1">
          <mxGeometry x="30" y="59.88" width="580" height="160.12" as="geometry" />
        </mxCell>
        <mxCell id="F4W6GdJIVFa8Bw8fIA7z-11" style="edgeStyle=orthogonalEdgeStyle;rounded=0;orthogonalLoop=1;jettySize=auto;html=1;exitX=0.5;exitY=0;exitDx=0;exitDy=0;entryX=0.5;entryY=1;entryDx=0;entryDy=0;" parent="1" source="F4W6GdJIVFa8Bw8fIA7z-2" target="dNxyNK7c78bLwvsdeMH5-11" edge="1">
          <mxGeometry relative="1" as="geometry" />
        </mxCell>
        <mxCell id="F4W6GdJIVFa8Bw8fIA7z-2" value="&lt;div style=&quot;font-family: Consolas, &amp;quot;Courier New&amp;quot;, monospace; line-height: 19px;&quot;&gt;&lt;font style=&quot;font-size: 17px;&quot;&gt;Setup CryptoContext&lt;/font&gt;&lt;/div&gt;" style="swimlane;html=1;startSize=50;horizontal=1;containerType=tree;glass=0;align=center;verticalAlign=middle;" parent="1" vertex="1" collapsed="1">
          <mxGeometry x="88" y="289" width="190" height="40" as="geometry">
            <mxRectangle x="88" y="289" width="2578" height="1181" as="alternateBounds" />
          </mxGeometry>
        </mxCell>
        <mxCell id="F4W6GdJIVFa8Bw8fIA7z-43" style="edgeStyle=orthogonalEdgeStyle;rounded=0;orthogonalLoop=1;jettySize=auto;html=1;entryX=0.494;entryY=1;entryDx=0;entryDy=0;entryPerimeter=0;fontColor=#000000;labelBackgroundColor=none;" parent="F4W6GdJIVFa8Bw8fIA7z-2" edge="1">
          <mxGeometry relative="1" as="geometry">
            <mxPoint x="1139.5" y="434" as="sourcePoint" />
            <mxPoint x="1139.94" y="360" as="targetPoint" />
            <Array as="points">
              <mxPoint x="1139.5" y="404" />
              <mxPoint x="1139.5" y="404" />
            </Array>
          </mxGeometry>
        </mxCell>
        <mxCell id="F4W6GdJIVFa8Bw8fIA7z-19" value="Params" style="swimlane;fontStyle=1;align=center;verticalAlign=top;childLayout=stackLayout;horizontal=1;startSize=26;horizontalStack=0;resizeParent=1;resizeParentMax=0;resizeLast=0;collapsible=1;marginBottom=0;whiteSpace=wrap;html=1;" parent="F4W6GdJIVFa8Bw8fIA7z-2" vertex="1">
          <mxGeometry x="1060" y="434" width="190" height="150" as="geometry" />
        </mxCell>
        <mxCell id="F4W6GdJIVFa8Bw8fIA7z-22" value="&lt;div style=&quot;font-family: Consolas, &amp;quot;Courier New&amp;quot;, monospace; font-size: 14px; line-height: 19px;&quot;&gt;+method:SetToDefaults&lt;/div&gt;" style="text;strokeColor=none;fillColor=none;align=left;verticalAlign=top;spacingLeft=4;spacingRight=4;overflow=hidden;rotatable=0;points=[[0,0.5],[1,0.5]];portConstraint=eastwest;whiteSpace=wrap;html=1;" parent="F4W6GdJIVFa8Bw8fIA7z-19" vertex="1">
          <mxGeometry y="26" width="190" height="54" as="geometry" />
        </mxCell>
        <mxCell id="F4W6GdJIVFa8Bw8fIA7z-590" value="" style="line;strokeWidth=1;fillColor=none;align=left;verticalAlign=middle;spacingTop=-1;spacingLeft=3;spacingRight=3;rotatable=0;labelPosition=right;points=[];portConstraint=eastwest;strokeColor=inherit;" parent="F4W6GdJIVFa8Bw8fIA7z-19" vertex="1">
          <mxGeometry y="80" width="190" height="8" as="geometry" />
        </mxCell>
        <mxCell id="F4W6GdJIVFa8Bw8fIA7z-589" value="&lt;div style=&quot;font-family: Consolas, &amp;quot;Courier New&amp;quot;, monospace; font-size: 14px; line-height: 19px;&quot;&gt;Arbitrary Scheme parameter default class&lt;br&gt;&lt;/div&gt;" style="text;strokeColor=none;fillColor=none;align=left;verticalAlign=top;spacingLeft=4;spacingRight=4;overflow=hidden;rotatable=0;points=[[0,0.5],[1,0.5]];portConstraint=eastwest;whiteSpace=wrap;html=1;" parent="F4W6GdJIVFa8Bw8fIA7z-19" vertex="1">
          <mxGeometry y="88" width="190" height="62" as="geometry" />
        </mxCell>
        <mxCell id="F4W6GdJIVFa8Bw8fIA7z-151" style="edgeStyle=orthogonalEdgeStyle;rounded=0;orthogonalLoop=1;jettySize=auto;html=1;entryX=0.5;entryY=1;entryDx=0;entryDy=0;fontColor=#000000;labelBackgroundColor=none;" parent="F4W6GdJIVFa8Bw8fIA7z-2" source="F4W6GdJIVFa8Bw8fIA7z-23" target="F4W6GdJIVFa8Bw8fIA7z-150" edge="1">
          <mxGeometry relative="1" as="geometry" />
        </mxCell>
        <mxCell id="F4W6GdJIVFa8Bw8fIA7z-23" value="&lt;div style=&quot;font-family: Consolas, &amp;quot;Courier New&amp;quot;, monospace; font-size: 14px; line-height: 19px;&quot;&gt;CCParams&amp;lt;CryptoContextCKKSRNS&amp;gt;&lt;/div&gt;" style="swimlane;fontStyle=1;align=center;verticalAlign=top;childLayout=stackLayout;horizontal=1;startSize=26;horizontalStack=0;resizeParent=1;resizeParentMax=0;resizeLast=0;collapsible=1;marginBottom=0;whiteSpace=wrap;html=1;" parent="F4W6GdJIVFa8Bw8fIA7z-2" vertex="1">
          <mxGeometry x="1010" y="308" width="260" height="50" as="geometry" />
        </mxCell>
        <mxCell id="F4W6GdJIVFa8Bw8fIA7z-26" value="&lt;div style=&quot;font-family: Consolas, &amp;quot;Courier New&amp;quot;, monospace; font-size: 14px; line-height: 19px;&quot;&gt;CKKS scheme specific class&lt;/div&gt;" style="text;strokeColor=none;fillColor=none;align=left;verticalAlign=top;spacingLeft=4;spacingRight=4;overflow=hidden;rotatable=0;points=[[0,0.5],[1,0.5]];portConstraint=eastwest;whiteSpace=wrap;html=1;" parent="F4W6GdJIVFa8Bw8fIA7z-23" vertex="1">
          <mxGeometry y="26" width="260" height="24" as="geometry" />
        </mxCell>
        <mxCell id="F4W6GdJIVFa8Bw8fIA7z-33" value="&lt;div style=&quot;font-family: Consolas, &amp;quot;Courier New&amp;quot;, monospace; font-size: 14px; line-height: 19px;&quot;&gt;&lt;div style=&quot;line-height: 19px;&quot;&gt;CryptoContextCKKSRNS&lt;/div&gt;&lt;/div&gt;" style="swimlane;fontStyle=1;align=center;verticalAlign=top;childLayout=stackLayout;horizontal=1;startSize=26;horizontalStack=0;resizeParent=1;resizeParentMax=0;resizeLast=0;collapsible=1;marginBottom=0;whiteSpace=wrap;html=1;fontColor=#000000;labelBackgroundColor=none;" parent="F4W6GdJIVFa8Bw8fIA7z-2" vertex="1">
          <mxGeometry x="820" y="360" width="170" height="80" as="geometry" />
        </mxCell>
        <mxCell id="F4W6GdJIVFa8Bw8fIA7z-36" value="&lt;div style=&quot;font-family: Consolas, &amp;quot;Courier New&amp;quot;, monospace; font-size: 14px; line-height: 19px;&quot;&gt;Generate CKKSRNS crypto context class&lt;/div&gt;" style="text;strokeColor=none;fillColor=none;align=left;verticalAlign=top;spacingLeft=4;spacingRight=4;overflow=hidden;rotatable=0;points=[[0,0.5],[1,0.5]];portConstraint=eastwest;whiteSpace=wrap;html=1;fontColor=#000000;labelBackgroundColor=none;" parent="F4W6GdJIVFa8Bw8fIA7z-33" vertex="1">
          <mxGeometry y="26" width="170" height="54" as="geometry" />
        </mxCell>
        <mxCell id="F4W6GdJIVFa8Bw8fIA7z-84" value="" style="edgeStyle=orthogonalEdgeStyle;rounded=0;orthogonalLoop=1;jettySize=auto;html=1;" parent="F4W6GdJIVFa8Bw8fIA7z-2" source="F4W6GdJIVFa8Bw8fIA7z-82" target="F4W6GdJIVFa8Bw8fIA7z-85" edge="1">
          <mxGeometry relative="1" as="geometry">
            <Array as="points">
              <mxPoint x="1495" y="551" />
              <mxPoint x="1638" y="551" />
            </Array>
          </mxGeometry>
        </mxCell>
        <mxCell id="F4W6GdJIVFa8Bw8fIA7z-85" value="&lt;div style=&quot;font-family: Consolas, &amp;quot;Courier New&amp;quot;, monospace; font-size: 14px; line-height: 19px;&quot;&gt;&lt;div style=&quot;line-height: 19px;&quot;&gt;ILElement&amp;lt;DerivedType, BigVecType&amp;gt;&lt;/div&gt;&lt;/div&gt;" style="swimlane;fontStyle=1;align=center;verticalAlign=top;childLayout=stackLayout;horizontal=1;startSize=26;horizontalStack=0;resizeParent=1;resizeParentMax=0;resizeLast=0;collapsible=1;marginBottom=0;whiteSpace=wrap;html=1;" parent="F4W6GdJIVFa8Bw8fIA7z-2" vertex="1">
          <mxGeometry x="1490" y="448" width="295" height="52" as="geometry" />
        </mxCell>
        <mxCell id="F4W6GdJIVFa8Bw8fIA7z-86" value="&lt;div style=&quot;font-family: Consolas, &amp;quot;Courier New&amp;quot;, monospace; font-size: 14px; line-height: 19px;&quot;&gt;Interface for ideal lattices class&lt;/div&gt;" style="text;strokeColor=none;fillColor=none;align=left;verticalAlign=top;spacingLeft=4;spacingRight=4;overflow=hidden;rotatable=0;points=[[0,0.5],[1,0.5]];portConstraint=eastwest;whiteSpace=wrap;html=1;" parent="F4W6GdJIVFa8Bw8fIA7z-85" vertex="1">
          <mxGeometry y="26" width="295" height="26" as="geometry" />
        </mxCell>
        <mxCell id="F4W6GdJIVFa8Bw8fIA7z-90" value="" style="edgeStyle=orthogonalEdgeStyle;rounded=0;orthogonalLoop=1;jettySize=auto;html=1;" parent="F4W6GdJIVFa8Bw8fIA7z-2" source="F4W6GdJIVFa8Bw8fIA7z-85" target="F4W6GdJIVFa8Bw8fIA7z-91" edge="1">
          <mxGeometry relative="1" as="geometry">
            <mxPoint x="1638" y="978" as="sourcePoint" />
            <Array as="points">
              <mxPoint x="1628" y="398" />
              <mxPoint x="1628" y="398" />
            </Array>
          </mxGeometry>
        </mxCell>
        <mxCell id="F4W6GdJIVFa8Bw8fIA7z-91" value="&lt;div style=&quot;font-family: Consolas, &amp;quot;Courier New&amp;quot;, monospace; font-size: 14px; line-height: 19px;&quot;&gt;&lt;div style=&quot;line-height: 19px;&quot;&gt;&lt;div style=&quot;line-height: 19px;&quot;&gt;DCRTPolyInterface&amp;lt;DCRTPolyImpl&amp;lt;VecType&amp;gt;, VecType, NativeVector, PolyImpl&amp;gt; &lt;/div&gt;&lt;/div&gt;&lt;/div&gt;" style="swimlane;fontStyle=1;align=center;verticalAlign=top;childLayout=stackLayout;horizontal=1;startSize=50;horizontalStack=0;resizeParent=1;resizeParentMax=0;resizeLast=0;collapsible=1;marginBottom=0;whiteSpace=wrap;html=1;" parent="F4W6GdJIVFa8Bw8fIA7z-2" vertex="1">
          <mxGeometry x="1480" y="308" width="315" height="100" as="geometry" />
        </mxCell>
        <mxCell id="F4W6GdJIVFa8Bw8fIA7z-92" value="&lt;div style=&quot;font-family: Consolas, &amp;quot;Courier New&amp;quot;, monospace; font-size: 14px; line-height: 19px;&quot;&gt;Ideal lattice for the double-CRT interface representation class&lt;/div&gt;" style="text;strokeColor=none;fillColor=none;align=left;verticalAlign=top;spacingLeft=4;spacingRight=4;overflow=hidden;rotatable=0;points=[[0,0.5],[1,0.5]];portConstraint=eastwest;whiteSpace=wrap;html=1;" parent="F4W6GdJIVFa8Bw8fIA7z-91" vertex="1">
          <mxGeometry y="50" width="315" height="50" as="geometry" />
        </mxCell>
        <mxCell id="F4W6GdJIVFa8Bw8fIA7z-100" value="" style="edgeStyle=orthogonalEdgeStyle;rounded=0;orthogonalLoop=1;jettySize=auto;html=1;" parent="F4W6GdJIVFa8Bw8fIA7z-2" source="F4W6GdJIVFa8Bw8fIA7z-91" target="F4W6GdJIVFa8Bw8fIA7z-101" edge="1">
          <mxGeometry relative="1" as="geometry">
            <mxPoint x="1708" y="1026" as="sourcePoint" />
            <Array as="points">
              <mxPoint x="1688" y="348" />
              <mxPoint x="1688" y="348" />
            </Array>
          </mxGeometry>
        </mxCell>
        <mxCell id="F4W6GdJIVFa8Bw8fIA7z-147" style="edgeStyle=orthogonalEdgeStyle;rounded=0;orthogonalLoop=1;jettySize=auto;html=1;entryX=1;entryY=0.5;entryDx=0;entryDy=0;dashed=1;dashPattern=8 8;" parent="F4W6GdJIVFa8Bw8fIA7z-2" source="F4W6GdJIVFa8Bw8fIA7z-101" target="F4W6GdJIVFa8Bw8fIA7z-136" edge="1">
          <mxGeometry relative="1" as="geometry" />
        </mxCell>
        <mxCell id="F4W6GdJIVFa8Bw8fIA7z-101" value="&lt;div style=&quot;font-family: Consolas, &amp;quot;Courier New&amp;quot;, monospace; font-size: 14px; line-height: 19px;&quot;&gt;&lt;div style=&quot;line-height: 19px;&quot;&gt;&lt;div style=&quot;line-height: 19px;&quot;&gt;&lt;div style=&quot;line-height: 19px;&quot;&gt;DCRTPolyImpl&amp;lt;BigVector&amp;gt;&lt;br&gt;&lt;/div&gt;&lt;/div&gt;&lt;/div&gt;&lt;/div&gt;" style="swimlane;fontStyle=1;align=center;verticalAlign=top;childLayout=stackLayout;horizontal=1;startSize=50;horizontalStack=0;resizeParent=1;resizeParentMax=0;resizeLast=0;collapsible=1;marginBottom=0;whiteSpace=wrap;html=1;" parent="F4W6GdJIVFa8Bw8fIA7z-2" vertex="1">
          <mxGeometry x="1480" y="168" width="315" height="100" as="geometry" />
        </mxCell>
        <mxCell id="F4W6GdJIVFa8Bw8fIA7z-102" value="&lt;div style=&quot;font-family: Consolas, &amp;quot;Courier New&amp;quot;, monospace; font-size: 14px; line-height: 19px;&quot;&gt;Represents integer lattice elements with double-CRT class&lt;/div&gt;" style="text;strokeColor=none;fillColor=none;align=left;verticalAlign=top;spacingLeft=4;spacingRight=4;overflow=hidden;rotatable=0;points=[[0,0.5],[1,0.5]];portConstraint=eastwest;whiteSpace=wrap;html=1;" parent="F4W6GdJIVFa8Bw8fIA7z-101" vertex="1">
          <mxGeometry y="50" width="315" height="50" as="geometry" />
        </mxCell>
        <mxCell id="F4W6GdJIVFa8Bw8fIA7z-112" value="" style="edgeStyle=orthogonalEdgeStyle;rounded=0;orthogonalLoop=1;jettySize=auto;html=1;" parent="F4W6GdJIVFa8Bw8fIA7z-2" source="F4W6GdJIVFa8Bw8fIA7z-82" target="F4W6GdJIVFa8Bw8fIA7z-113" edge="1">
          <mxGeometry relative="1" as="geometry">
            <Array as="points">
              <mxPoint x="1495" y="551" />
              <mxPoint x="1345" y="551" />
            </Array>
          </mxGeometry>
        </mxCell>
        <mxCell id="F4W6GdJIVFa8Bw8fIA7z-116" style="edgeStyle=orthogonalEdgeStyle;rounded=0;orthogonalLoop=1;jettySize=auto;html=1;entryX=0.5;entryY=1;entryDx=0;entryDy=0;dashed=1;dashPattern=8 8;" parent="F4W6GdJIVFa8Bw8fIA7z-2" source="F4W6GdJIVFa8Bw8fIA7z-113" target="F4W6GdJIVFa8Bw8fIA7z-115" edge="1">
          <mxGeometry relative="1" as="geometry">
            <Array as="points">
              <mxPoint x="1345" y="401" />
              <mxPoint x="1345" y="401" />
            </Array>
          </mxGeometry>
        </mxCell>
        <mxCell id="F4W6GdJIVFa8Bw8fIA7z-141" style="edgeStyle=orthogonalEdgeStyle;rounded=0;orthogonalLoop=1;jettySize=auto;html=1;dashed=1;" parent="F4W6GdJIVFa8Bw8fIA7z-2" source="F4W6GdJIVFa8Bw8fIA7z-115" edge="1">
          <mxGeometry relative="1" as="geometry">
            <mxPoint x="1140" y="288" as="targetPoint" />
          </mxGeometry>
        </mxCell>
        <mxCell id="F4W6GdJIVFa8Bw8fIA7z-115" value="&lt;div style=&quot;font-family: Consolas, &amp;quot;Courier New&amp;quot;, monospace; font-size: 14px; line-height: 19px;&quot;&gt;&lt;font color=&quot;#67ab9f&quot;&gt;&lt;b&gt;CryptoContext&lt;/b&gt;&lt;/font&gt;&lt;/div&gt;" style="html=1;whiteSpace=wrap;" parent="F4W6GdJIVFa8Bw8fIA7z-2" vertex="1">
          <mxGeometry x="1290" y="268" width="110" height="40" as="geometry" />
        </mxCell>
        <mxCell id="F4W6GdJIVFa8Bw8fIA7z-113" value="&lt;div style=&quot;font-family: Consolas, &amp;quot;Courier New&amp;quot;, monospace; font-size: 14px; line-height: 19px;&quot;&gt;&lt;div style=&quot;line-height: 19px;&quot;&gt;CryptoContextImpl&lt;/div&gt;&lt;/div&gt;" style="swimlane;fontStyle=1;align=center;verticalAlign=top;childLayout=stackLayout;horizontal=1;startSize=26;horizontalStack=0;resizeParent=1;resizeParentMax=0;resizeLast=0;collapsible=1;marginBottom=0;whiteSpace=wrap;html=1;" parent="F4W6GdJIVFa8Bw8fIA7z-2" vertex="1">
          <mxGeometry x="1270" y="434" width="200" height="80" as="geometry" />
        </mxCell>
        <mxCell id="F4W6GdJIVFa8Bw8fIA7z-114" value="Create all Contexts class&lt;br&gt;&lt;div style=&quot;font-family: Consolas, &amp;quot;Courier New&amp;quot;, monospace; font-size: 14px; line-height: 19px;&quot;&gt;method:GenCryptoContext()&lt;/div&gt;" style="text;strokeColor=none;fillColor=none;align=left;verticalAlign=top;spacingLeft=4;spacingRight=4;overflow=hidden;rotatable=0;points=[[0,0.5],[1,0.5]];portConstraint=eastwest;whiteSpace=wrap;html=1;" parent="F4W6GdJIVFa8Bw8fIA7z-113" vertex="1">
          <mxGeometry y="26" width="200" height="54" as="geometry" />
        </mxCell>
        <mxCell id="F4W6GdJIVFa8Bw8fIA7z-148" style="edgeStyle=orthogonalEdgeStyle;rounded=0;orthogonalLoop=1;jettySize=auto;html=1;exitX=0;exitY=0.5;exitDx=0;exitDy=0;dashed=1;" parent="F4W6GdJIVFa8Bw8fIA7z-2" source="F4W6GdJIVFa8Bw8fIA7z-136" edge="1">
          <mxGeometry relative="1" as="geometry">
            <mxPoint x="1140" y="218" as="targetPoint" />
          </mxGeometry>
        </mxCell>
        <mxCell id="F4W6GdJIVFa8Bw8fIA7z-136" value="&lt;div style=&quot;font-family: Consolas, &amp;quot;Courier New&amp;quot;, monospace; font-size: 14px; line-height: 19px;&quot;&gt;&lt;b style=&quot;&quot;&gt;&lt;font color=&quot;#67ab9f&quot;&gt;DCRTPoly&lt;/font&gt;&lt;/b&gt;&lt;/div&gt;" style="html=1;whiteSpace=wrap;" parent="F4W6GdJIVFa8Bw8fIA7z-2" vertex="1">
          <mxGeometry x="1290" y="193" width="110" height="50" as="geometry" />
        </mxCell>
        <mxCell id="F4W6GdJIVFa8Bw8fIA7z-146" value="" style="edgeStyle=orthogonalEdgeStyle;rounded=0;orthogonalLoop=1;jettySize=auto;html=1;exitX=1.006;exitY=0.265;exitDx=0;exitDy=0;exitPerimeter=0;dashed=1;fontColor=#000000;labelBackgroundColor=none;" parent="F4W6GdJIVFa8Bw8fIA7z-2" source="F4W6GdJIVFa8Bw8fIA7z-36" edge="1">
          <mxGeometry relative="1" as="geometry">
            <mxPoint x="980" y="399" as="sourcePoint" />
            <mxPoint x="1140" y="399" as="targetPoint" />
          </mxGeometry>
        </mxCell>
        <mxCell id="F4W6GdJIVFa8Bw8fIA7z-150" value="&lt;div style=&quot;font-family: Consolas, &amp;quot;Courier New&amp;quot;, monospace; font-size: 14px; line-height: 19px;&quot;&gt;&lt;div style=&quot;line-height: 19px;&quot;&gt;&lt;b style=&quot;&quot;&gt;&lt;font color=&quot;#67ab9f&quot;&gt;CryptoContext&amp;lt;DCRTPoly&amp;gt;&lt;/font&gt;&lt;/b&gt;&lt;/div&gt;&lt;/div&gt;" style="html=1;whiteSpace=wrap;fillColor=#CCCCCC;strokeColor=#E6E6E6;" parent="F4W6GdJIVFa8Bw8fIA7z-2" vertex="1">
          <mxGeometry x="1042.5" y="81" width="195" height="70" as="geometry" />
        </mxCell>
        <mxCell id="F4W6GdJIVFa8Bw8fIA7z-82" value="&lt;div style=&quot;font-family: Consolas, &amp;quot;Courier New&amp;quot;, monospace; font-size: 14px; line-height: 19px;&quot;&gt;&lt;span style=&quot;background-color: rgb(204, 204, 204);&quot;&gt;Serializable&lt;/span&gt;&lt;/div&gt;" style="swimlane;fontStyle=1;align=center;verticalAlign=top;childLayout=stackLayout;horizontal=1;startSize=26;horizontalStack=0;resizeParent=1;resizeParentMax=0;resizeLast=0;collapsible=1;marginBottom=0;whiteSpace=wrap;html=1;labelBorderColor=none;labelBackgroundColor=default;fillColor=#CCCCCC;fontColor=#333333;strokeColor=#666666;" parent="F4W6GdJIVFa8Bw8fIA7z-2" vertex="1">
          <mxGeometry x="1400" y="611" width="190" height="70" as="geometry" />
        </mxCell>
        <mxCell id="F4W6GdJIVFa8Bw8fIA7z-83" value="&lt;div style=&quot;font-family: Consolas, &amp;quot;Courier New&amp;quot;, monospace; font-size: 14px; line-height: 19px;&quot;&gt;Base class for OpenFHE serialization&lt;/div&gt;" style="text;strokeColor=#666666;fillColor=#CCCCCC;align=left;verticalAlign=top;spacingLeft=4;spacingRight=4;overflow=hidden;rotatable=0;points=[[0,0.5],[1,0.5]];portConstraint=eastwest;whiteSpace=wrap;html=1;fontColor=#333333;" parent="F4W6GdJIVFa8Bw8fIA7z-82" vertex="1">
          <mxGeometry y="26" width="190" height="44" as="geometry" />
        </mxCell>
        <mxCell id="F4W6GdJIVFa8Bw8fIA7z-564" style="edgeStyle=orthogonalEdgeStyle;rounded=0;orthogonalLoop=1;jettySize=auto;html=1;exitX=0;exitY=0.5;exitDx=0;exitDy=0;entryX=1.014;entryY=0.191;entryDx=0;entryDy=0;entryPerimeter=0;dashed=1;endArrow=none;endFill=0;" parent="F4W6GdJIVFa8Bw8fIA7z-2" source="F4W6GdJIVFa8Bw8fIA7z-549" target="F4W6GdJIVFa8Bw8fIA7z-92" edge="1">
          <mxGeometry relative="1" as="geometry" />
        </mxCell>
        <mxCell id="F4W6GdJIVFa8Bw8fIA7z-548" value="&lt;div style=&quot;font-family: Consolas, &amp;quot;Courier New&amp;quot;, monospace; font-size: 14px; line-height: 19px;&quot;&gt;&lt;div style=&quot;line-height: 19px;&quot;&gt;&lt;div style=&quot;line-height: 19px;&quot;&gt;DiscreteGaussianGeneratorImpl&lt;/div&gt;&lt;/div&gt;&lt;/div&gt;" style="swimlane;fontStyle=1;align=center;verticalAlign=top;childLayout=stackLayout;horizontal=1;startSize=26;horizontalStack=0;resizeParent=1;resizeParentMax=0;resizeLast=0;collapsible=1;marginBottom=0;whiteSpace=wrap;html=1;labelBorderColor=none;labelBackgroundColor=none;fillColor=none;fontColor=#000000;strokeColor=#666666;" parent="F4W6GdJIVFa8Bw8fIA7z-2" vertex="1">
          <mxGeometry x="2140" y="71" width="260" height="140" as="geometry" />
        </mxCell>
        <mxCell id="F4W6GdJIVFa8Bw8fIA7z-549" value="&lt;div style=&quot;font-family: Consolas, &amp;quot;Courier New&amp;quot;, monospace; font-size: 14px; line-height: 19px;&quot;&gt;&lt;div style=&quot;line-height: 19px;&quot;&gt;&lt;div style=&quot;line-height: 19px;&quot;&gt;&lt;span style=&quot;&quot;&gt;+method:&lt;/span&gt;SetModulus&lt;/div&gt;&lt;div style=&quot;line-height: 19px;&quot;&gt;&lt;div&gt;&lt;div style=&quot;border-color: var(--border-color); line-height: 19px;&quot;&gt;+method:GenerateVector&lt;/div&gt;&lt;div style=&quot;border-color: var(--border-color); line-height: 19px;&quot;&gt;&lt;div style=&quot;border-color: var(--border-color);&quot;&gt;&lt;br style=&quot;border-color: var(--border-color);&quot;&gt;&lt;/div&gt;&lt;/div&gt;&lt;/div&gt;&lt;/div&gt;&lt;/div&gt;&lt;/div&gt;" style="text;strokeColor=#666666;fillColor=none;align=left;verticalAlign=top;spacingLeft=4;spacingRight=4;overflow=hidden;rotatable=0;points=[[0,0.5],[1,0.5]];portConstraint=eastwest;whiteSpace=wrap;html=1;fontColor=#000000;labelBackgroundColor=none;" parent="F4W6GdJIVFa8Bw8fIA7z-548" vertex="1">
          <mxGeometry y="26" width="260" height="64" as="geometry" />
        </mxCell>
        <mxCell id="F4W6GdJIVFa8Bw8fIA7z-550" value="&lt;div style=&quot;font-family: Consolas, &amp;quot;Courier New&amp;quot;, monospace; font-size: 14px; line-height: 19px;&quot;&gt;The class for Discrete Gaussion Distribution generator&lt;/div&gt;" style="text;strokeColor=none;fillColor=none;align=left;verticalAlign=top;spacingLeft=4;spacingRight=4;overflow=hidden;rotatable=0;points=[[0,0.5],[1,0.5]];portConstraint=eastwest;whiteSpace=wrap;html=1;labelBackgroundColor=none;fontColor=#000000;" parent="F4W6GdJIVFa8Bw8fIA7z-548" vertex="1">
          <mxGeometry y="90" width="260" height="50" as="geometry" />
        </mxCell>
        <mxCell id="F4W6GdJIVFa8Bw8fIA7z-571" value="&lt;div style=&quot;font-family: Consolas, &amp;quot;Courier New&amp;quot;, monospace; font-size: 14px; line-height: 19px;&quot;&gt;&lt;div style=&quot;line-height: 19px;&quot;&gt;&lt;div style=&quot;line-height: 19px;&quot;&gt;&lt;div style=&quot;line-height: 19px;&quot;&gt;DiscreteUniformGeneratorImpl&lt;/div&gt;&lt;/div&gt;&lt;/div&gt;&lt;/div&gt;" style="swimlane;fontStyle=1;align=center;verticalAlign=top;childLayout=stackLayout;horizontal=1;startSize=26;horizontalStack=0;resizeParent=1;resizeParentMax=0;resizeLast=0;collapsible=1;marginBottom=0;whiteSpace=wrap;html=1;labelBorderColor=none;labelBackgroundColor=none;fillColor=none;fontColor=#000000;strokeColor=#666666;" parent="F4W6GdJIVFa8Bw8fIA7z-2" vertex="1">
          <mxGeometry x="2140" y="243" width="260" height="140" as="geometry" />
        </mxCell>
        <mxCell id="F4W6GdJIVFa8Bw8fIA7z-572" value="&lt;div style=&quot;font-family: Consolas, &amp;quot;Courier New&amp;quot;, monospace; font-size: 14px; line-height: 19px;&quot;&gt;&lt;div style=&quot;line-height: 19px;&quot;&gt;&lt;div style=&quot;line-height: 19px;&quot;&gt;&lt;span style=&quot;&quot;&gt;+method:&lt;/span&gt;SetModulus&lt;/div&gt;&lt;div style=&quot;line-height: 19px;&quot;&gt;&lt;div&gt;&lt;div style=&quot;border-color: var(--border-color); line-height: 19px;&quot;&gt;+method:GenerateVector&lt;/div&gt;&lt;div style=&quot;border-color: var(--border-color); line-height: 19px;&quot;&gt;&lt;div style=&quot;border-color: var(--border-color);&quot;&gt;&lt;br style=&quot;border-color: var(--border-color);&quot;&gt;&lt;/div&gt;&lt;/div&gt;&lt;/div&gt;&lt;/div&gt;&lt;/div&gt;&lt;/div&gt;" style="text;strokeColor=#666666;fillColor=none;align=left;verticalAlign=top;spacingLeft=4;spacingRight=4;overflow=hidden;rotatable=0;points=[[0,0.5],[1,0.5]];portConstraint=eastwest;whiteSpace=wrap;html=1;fontColor=#000000;labelBackgroundColor=none;" parent="F4W6GdJIVFa8Bw8fIA7z-571" vertex="1">
          <mxGeometry y="26" width="260" height="64" as="geometry" />
        </mxCell>
        <mxCell id="F4W6GdJIVFa8Bw8fIA7z-573" value="&lt;div style=&quot;font-family: Consolas, &amp;quot;Courier New&amp;quot;, monospace; font-size: 14px; line-height: 19px;&quot;&gt;The class for Discrete Gaussion Distribution generator&lt;/div&gt;" style="text;strokeColor=none;fillColor=none;align=left;verticalAlign=top;spacingLeft=4;spacingRight=4;overflow=hidden;rotatable=0;points=[[0,0.5],[1,0.5]];portConstraint=eastwest;whiteSpace=wrap;html=1;labelBackgroundColor=none;fontColor=#000000;" parent="F4W6GdJIVFa8Bw8fIA7z-571" vertex="1">
          <mxGeometry y="90" width="260" height="50" as="geometry" />
        </mxCell>
        <mxCell id="F4W6GdJIVFa8Bw8fIA7z-575" value="&lt;div style=&quot;font-family: Consolas, &amp;quot;Courier New&amp;quot;, monospace; font-size: 14px; line-height: 19px;&quot;&gt;&lt;div style=&quot;line-height: 19px;&quot;&gt;&lt;div style=&quot;line-height: 19px;&quot;&gt;&lt;div style=&quot;line-height: 19px;&quot;&gt;&lt;div style=&quot;line-height: 19px;&quot;&gt;TernaryUniformGeneratorImpl&lt;/div&gt;&lt;/div&gt;&lt;/div&gt;&lt;/div&gt;&lt;/div&gt;" style="swimlane;fontStyle=1;align=center;verticalAlign=top;childLayout=stackLayout;horizontal=1;startSize=26;horizontalStack=0;resizeParent=1;resizeParentMax=0;resizeLast=0;collapsible=1;marginBottom=0;whiteSpace=wrap;html=1;labelBorderColor=none;labelBackgroundColor=none;fillColor=none;fontColor=#000000;strokeColor=#666666;" parent="F4W6GdJIVFa8Bw8fIA7z-2" vertex="1">
          <mxGeometry x="2140" y="408" width="260" height="120" as="geometry" />
        </mxCell>
        <mxCell id="F4W6GdJIVFa8Bw8fIA7z-576" value="&lt;div style=&quot;font-family: Consolas, &amp;quot;Courier New&amp;quot;, monospace; font-size: 14px; line-height: 19px;&quot;&gt;&lt;div style=&quot;line-height: 19px;&quot;&gt;&lt;div style=&quot;line-height: 19px;&quot;&gt;&lt;span style=&quot;&quot;&gt;+method:GenerateVector&lt;/span&gt;&lt;/div&gt;&lt;div style=&quot;line-height: 19px;&quot;&gt;&lt;div style=&quot;border-color: var(--border-color); line-height: 19px;&quot;&gt;&lt;div style=&quot;border-color: var(--border-color);&quot;&gt;&lt;br style=&quot;border-color: var(--border-color);&quot;&gt;&lt;/div&gt;&lt;/div&gt;&lt;/div&gt;&lt;/div&gt;&lt;/div&gt;" style="text;strokeColor=#666666;fillColor=none;align=left;verticalAlign=top;spacingLeft=4;spacingRight=4;overflow=hidden;rotatable=0;points=[[0,0.5],[1,0.5]];portConstraint=eastwest;whiteSpace=wrap;html=1;fontColor=#000000;labelBackgroundColor=none;" parent="F4W6GdJIVFa8Bw8fIA7z-575" vertex="1">
          <mxGeometry y="26" width="260" height="44" as="geometry" />
        </mxCell>
        <mxCell id="F4W6GdJIVFa8Bw8fIA7z-577" value="&lt;div style=&quot;font-family: Consolas, &amp;quot;Courier New&amp;quot;, monospace; font-size: 14px; line-height: 19px;&quot;&gt;&lt;div style=&quot;line-height: 19px;&quot;&gt;&amp;nbsp;A generator of the Ternary Uniform Distribution.&lt;/div&gt;&lt;/div&gt;" style="text;strokeColor=none;fillColor=none;align=left;verticalAlign=top;spacingLeft=4;spacingRight=4;overflow=hidden;rotatable=0;points=[[0,0.5],[1,0.5]];portConstraint=eastwest;whiteSpace=wrap;html=1;labelBackgroundColor=none;fontColor=#000000;" parent="F4W6GdJIVFa8Bw8fIA7z-575" vertex="1">
          <mxGeometry y="70" width="260" height="50" as="geometry" />
        </mxCell>
        <mxCell id="F4W6GdJIVFa8Bw8fIA7z-578" style="edgeStyle=orthogonalEdgeStyle;rounded=0;orthogonalLoop=1;jettySize=auto;html=1;exitX=0;exitY=0.5;exitDx=0;exitDy=0;entryX=1.03;entryY=0.191;entryDx=0;entryDy=0;entryPerimeter=0;dashed=1;endArrow=none;endFill=0;" parent="F4W6GdJIVFa8Bw8fIA7z-2" source="F4W6GdJIVFa8Bw8fIA7z-572" target="F4W6GdJIVFa8Bw8fIA7z-92" edge="1">
          <mxGeometry relative="1" as="geometry">
            <Array as="points">
              <mxPoint x="1965" y="301" />
              <mxPoint x="1965" y="368" />
            </Array>
          </mxGeometry>
        </mxCell>
        <mxCell id="F4W6GdJIVFa8Bw8fIA7z-579" style="edgeStyle=orthogonalEdgeStyle;rounded=0;orthogonalLoop=1;jettySize=auto;html=1;entryX=1.002;entryY=0.191;entryDx=0;entryDy=0;entryPerimeter=0;dashed=1;" parent="F4W6GdJIVFa8Bw8fIA7z-2" source="F4W6GdJIVFa8Bw8fIA7z-576" target="F4W6GdJIVFa8Bw8fIA7z-92" edge="1">
          <mxGeometry relative="1" as="geometry" />
        </mxCell>
        <mxCell id="F4W6GdJIVFa8Bw8fIA7z-565" value="&lt;div style=&quot;font-family: Consolas, &amp;quot;Courier New&amp;quot;, monospace; font-size: 14px; line-height: 19px;&quot;&gt;&lt;div style=&quot;line-height: 19px;&quot;&gt;&lt;div style=&quot;line-height: 19px;&quot;&gt;ElemParams&lt;/div&gt;&lt;/div&gt;&lt;/div&gt;" style="swimlane;fontStyle=1;align=center;verticalAlign=top;childLayout=stackLayout;horizontal=1;startSize=26;horizontalStack=0;resizeParent=1;resizeParentMax=0;resizeLast=0;collapsible=1;marginBottom=0;whiteSpace=wrap;html=1;labelBackgroundColor=none;fontColor=#000000;" parent="F4W6GdJIVFa8Bw8fIA7z-2" vertex="1">
          <mxGeometry x="2140" y="711" width="335" height="90" as="geometry" />
        </mxCell>
        <mxCell id="F4W6GdJIVFa8Bw8fIA7z-566" value="&lt;div style=&quot;font-family: Consolas, &amp;quot;Courier New&amp;quot;, monospace; font-size: 14px; line-height: 19px;&quot;&gt;&lt;div style=&quot;line-height: 19px;&quot;&gt;base class for parameters for a lattice element&lt;/div&gt;&lt;/div&gt;" style="text;strokeColor=none;fillColor=none;align=left;verticalAlign=top;spacingLeft=4;spacingRight=4;overflow=hidden;rotatable=0;points=[[0,0.5],[1,0.5]];portConstraint=eastwest;whiteSpace=wrap;html=1;labelBackgroundColor=none;fontColor=#000000;" parent="F4W6GdJIVFa8Bw8fIA7z-565" vertex="1">
          <mxGeometry y="26" width="335" height="64" as="geometry" />
        </mxCell>
        <mxCell id="F4W6GdJIVFa8Bw8fIA7z-567" value="" style="edgeStyle=orthogonalEdgeStyle;rounded=0;orthogonalLoop=1;jettySize=auto;html=1;labelBackgroundColor=none;fontColor=#000000;" parent="F4W6GdJIVFa8Bw8fIA7z-2" source="F4W6GdJIVFa8Bw8fIA7z-565" target="F4W6GdJIVFa8Bw8fIA7z-568" edge="1">
          <mxGeometry relative="1" as="geometry" />
        </mxCell>
        <mxCell id="F4W6GdJIVFa8Bw8fIA7z-582" style="edgeStyle=orthogonalEdgeStyle;rounded=0;orthogonalLoop=1;jettySize=auto;html=1;entryX=1.002;entryY=0.192;entryDx=0;entryDy=0;entryPerimeter=0;dashed=1;" parent="F4W6GdJIVFa8Bw8fIA7z-2" source="F4W6GdJIVFa8Bw8fIA7z-568" target="F4W6GdJIVFa8Bw8fIA7z-92" edge="1">
          <mxGeometry relative="1" as="geometry">
            <Array as="points">
              <mxPoint x="1965" y="606" />
              <mxPoint x="1965" y="368" />
            </Array>
          </mxGeometry>
        </mxCell>
        <mxCell id="F4W6GdJIVFa8Bw8fIA7z-568" value="&lt;div style=&quot;font-family: Consolas, &amp;quot;Courier New&amp;quot;, monospace; font-size: 14px; line-height: 19px;&quot;&gt;&lt;div style=&quot;line-height: 19px;&quot;&gt;&lt;div style=&quot;line-height: 19px;&quot;&gt;&lt;div style=&quot;line-height: 19px;&quot;&gt;ILDCRTParams&lt;/div&gt;&lt;/div&gt;&lt;/div&gt;&lt;/div&gt;" style="swimlane;fontStyle=1;align=center;verticalAlign=top;childLayout=stackLayout;horizontal=1;startSize=26;horizontalStack=0;resizeParent=1;resizeParentMax=0;resizeLast=0;collapsible=1;marginBottom=0;whiteSpace=wrap;html=1;labelBackgroundColor=none;fontColor=#000000;" parent="F4W6GdJIVFa8Bw8fIA7z-2" vertex="1">
          <mxGeometry x="2140" y="561" width="335" height="90" as="geometry" />
        </mxCell>
        <mxCell id="F4W6GdJIVFa8Bw8fIA7z-569" value="&lt;div style=&quot;font-family: Consolas, &amp;quot;Courier New&amp;quot;, monospace; font-size: 14px; line-height: 19px;&quot;&gt;&lt;div style=&quot;line-height: 19px;&quot;&gt;&lt;div style=&quot;line-height: 19px;&quot;&gt;Parameters for array of ideal lattices (used for Double-CRT)&lt;/div&gt;&lt;/div&gt;&lt;/div&gt;" style="text;strokeColor=none;fillColor=none;align=left;verticalAlign=top;spacingLeft=4;spacingRight=4;overflow=hidden;rotatable=0;points=[[0,0.5],[1,0.5]];portConstraint=eastwest;whiteSpace=wrap;html=1;labelBackgroundColor=none;fontColor=#000000;" parent="F4W6GdJIVFa8Bw8fIA7z-568" vertex="1">
          <mxGeometry y="26" width="335" height="64" as="geometry" />
        </mxCell>
        <mxCell id="F4W6GdJIVFa8Bw8fIA7z-461" value="&lt;div style=&quot;font-family: Consolas, &amp;quot;Courier New&amp;quot;, monospace; font-size: 14px; line-height: 19px;&quot;&gt;&lt;div style=&quot;line-height: 19px;&quot;&gt;&lt;div style=&quot;line-height: 19px;&quot;&gt;&lt;div style=&quot;line-height: 19px;&quot;&gt;&lt;div style=&quot;line-height: 19px;&quot;&gt;&lt;div style=&quot;line-height: 19px;&quot;&gt;CryptoParametersBase&lt;/div&gt;&lt;/div&gt;&lt;/div&gt;&lt;/div&gt;&lt;/div&gt;&lt;/div&gt;" style="swimlane;fontStyle=1;align=center;verticalAlign=top;childLayout=stackLayout;horizontal=1;startSize=26;horizontalStack=0;resizeParent=1;resizeParentMax=0;resizeLast=0;collapsible=1;marginBottom=0;whiteSpace=wrap;html=1;fontColor=#000000;labelBackgroundColor=none;" parent="F4W6GdJIVFa8Bw8fIA7z-2" vertex="1">
          <mxGeometry x="262.5" y="816" width="215" height="110" as="geometry" />
        </mxCell>
        <mxCell id="F4W6GdJIVFa8Bw8fIA7z-462" value="&lt;div style=&quot;font-family: Consolas, &amp;quot;Courier New&amp;quot;, monospace; font-size: 14px; line-height: 19px;&quot;&gt;&lt;div style=&quot;line-height: 19px;&quot;&gt;&lt;div style=&quot;line-height: 19px;&quot;&gt;&lt;div style=&quot;line-height: 19px;&quot;&gt;&lt;div&gt;main implementation class to capture essential cryptoparameters of&lt;/div&gt;&lt;div&gt;&lt;span style=&quot;&quot;&gt;&amp;nbsp;* any LBC system&lt;/span&gt;&lt;/div&gt;&lt;/div&gt;&lt;/div&gt;&lt;/div&gt;&lt;/div&gt;" style="text;strokeColor=none;fillColor=none;align=left;verticalAlign=top;spacingLeft=4;spacingRight=4;overflow=hidden;rotatable=0;points=[[0,0.5],[1,0.5]];portConstraint=eastwest;whiteSpace=wrap;html=1;fontColor=#000000;labelBackgroundColor=none;" parent="F4W6GdJIVFa8Bw8fIA7z-461" vertex="1">
          <mxGeometry y="26" width="215" height="84" as="geometry" />
        </mxCell>
        <mxCell id="F4W6GdJIVFa8Bw8fIA7z-464" value="&lt;div style=&quot;font-family: Consolas, &amp;quot;Courier New&amp;quot;, monospace; font-size: 14px; line-height: 19px;&quot;&gt;&lt;div style=&quot;line-height: 19px;&quot;&gt;&lt;div style=&quot;line-height: 19px;&quot;&gt;&lt;div style=&quot;line-height: 19px;&quot;&gt;&lt;div style=&quot;line-height: 19px;&quot;&gt;&lt;div style=&quot;line-height: 19px;&quot;&gt;CryptoParametersRLWE&amp;lt;DCRTPoly&amp;gt;&lt;/div&gt;&lt;/div&gt;&lt;/div&gt;&lt;/div&gt;&lt;/div&gt;&lt;/div&gt;" style="swimlane;fontStyle=1;align=center;verticalAlign=top;childLayout=stackLayout;horizontal=1;startSize=26;horizontalStack=0;resizeParent=1;resizeParentMax=0;resizeLast=0;collapsible=1;marginBottom=0;whiteSpace=wrap;html=1;fontColor=#000000;labelBackgroundColor=none;" parent="F4W6GdJIVFa8Bw8fIA7z-2" vertex="1">
          <mxGeometry x="220" y="681" width="300" height="70" as="geometry" />
        </mxCell>
        <mxCell id="F4W6GdJIVFa8Bw8fIA7z-465" value="&lt;div style=&quot;font-family: Consolas, &amp;quot;Courier New&amp;quot;, monospace; font-size: 14px; line-height: 19px;&quot;&gt;&lt;div style=&quot;line-height: 19px;&quot;&gt;&lt;div style=&quot;line-height: 19px;&quot;&gt;Template for crypto parameters&lt;/div&gt;&lt;/div&gt;&lt;/div&gt;" style="text;strokeColor=none;fillColor=none;align=left;verticalAlign=top;spacingLeft=4;spacingRight=4;overflow=hidden;rotatable=0;points=[[0,0.5],[1,0.5]];portConstraint=eastwest;whiteSpace=wrap;html=1;fontColor=#000000;labelBackgroundColor=none;" parent="F4W6GdJIVFa8Bw8fIA7z-464" vertex="1">
          <mxGeometry y="26" width="300" height="44" as="geometry" />
        </mxCell>
        <mxCell id="F4W6GdJIVFa8Bw8fIA7z-460" value="" style="edgeStyle=orthogonalEdgeStyle;rounded=0;orthogonalLoop=1;jettySize=auto;html=1;fontColor=#000000;labelBackgroundColor=none;" parent="F4W6GdJIVFa8Bw8fIA7z-2" source="F4W6GdJIVFa8Bw8fIA7z-461" target="F4W6GdJIVFa8Bw8fIA7z-464" edge="1">
          <mxGeometry relative="1" as="geometry" />
        </mxCell>
        <mxCell id="F4W6GdJIVFa8Bw8fIA7z-466" value="&lt;div style=&quot;font-family: Consolas, &amp;quot;Courier New&amp;quot;, monospace; font-size: 14px; line-height: 19px;&quot;&gt;&lt;div style=&quot;line-height: 19px;&quot;&gt;&lt;div style=&quot;line-height: 19px;&quot;&gt;&lt;div style=&quot;line-height: 19px;&quot;&gt;&lt;div style=&quot;line-height: 19px;&quot;&gt;&lt;div style=&quot;line-height: 19px;&quot;&gt;&lt;div style=&quot;line-height: 19px;&quot;&gt;CryptoParametersRNS&lt;/div&gt;&lt;/div&gt;&lt;/div&gt;&lt;/div&gt;&lt;/div&gt;&lt;/div&gt;&lt;/div&gt;" style="swimlane;fontStyle=1;align=center;verticalAlign=top;childLayout=stackLayout;horizontal=1;startSize=26;horizontalStack=0;resizeParent=1;resizeParentMax=0;resizeLast=0;collapsible=1;marginBottom=0;whiteSpace=wrap;html=1;fontColor=#000000;labelBackgroundColor=none;" parent="F4W6GdJIVFa8Bw8fIA7z-2" vertex="1">
          <mxGeometry x="265" y="491" width="210" height="130" as="geometry" />
        </mxCell>
        <mxCell id="F4W6GdJIVFa8Bw8fIA7z-467" value="&lt;div style=&quot;font-family: Consolas, &amp;quot;Courier New&amp;quot;, monospace; font-size: 14px; line-height: 19px;&quot;&gt;&lt;div style=&quot;line-height: 19px;&quot;&gt;&lt;div style=&quot;line-height: 19px;&quot;&gt;&lt;div&gt;main implementation class to capture essential cryptoparameters of&lt;/div&gt;&lt;div&gt;&lt;span style=&quot;&quot;&gt;&amp;nbsp;* any LBC system&lt;/span&gt;&lt;/div&gt;&lt;/div&gt;&lt;/div&gt;&lt;/div&gt;" style="text;strokeColor=none;fillColor=none;align=left;verticalAlign=top;spacingLeft=4;spacingRight=4;overflow=hidden;rotatable=0;points=[[0,0.5],[1,0.5]];portConstraint=eastwest;whiteSpace=wrap;html=1;fontColor=#000000;labelBackgroundColor=none;" parent="F4W6GdJIVFa8Bw8fIA7z-466" vertex="1">
          <mxGeometry y="26" width="210" height="104" as="geometry" />
        </mxCell>
        <mxCell id="F4W6GdJIVFa8Bw8fIA7z-463" value="" style="edgeStyle=orthogonalEdgeStyle;rounded=0;orthogonalLoop=1;jettySize=auto;html=1;fontColor=#000000;labelBackgroundColor=none;" parent="F4W6GdJIVFa8Bw8fIA7z-2" source="F4W6GdJIVFa8Bw8fIA7z-464" target="F4W6GdJIVFa8Bw8fIA7z-466" edge="1">
          <mxGeometry relative="1" as="geometry" />
        </mxCell>
        <mxCell id="F4W6GdJIVFa8Bw8fIA7z-472" style="edgeStyle=orthogonalEdgeStyle;rounded=0;orthogonalLoop=1;jettySize=auto;html=1;fontColor=#000000;labelBackgroundColor=none;" parent="F4W6GdJIVFa8Bw8fIA7z-2" source="F4W6GdJIVFa8Bw8fIA7z-468" target="F4W6GdJIVFa8Bw8fIA7z-461" edge="1">
          <mxGeometry relative="1" as="geometry" />
        </mxCell>
        <mxCell id="F4W6GdJIVFa8Bw8fIA7z-468" value="&lt;div style=&quot;font-family: Consolas, &amp;quot;Courier New&amp;quot;, monospace; font-size: 14px; line-height: 19px;&quot;&gt;&lt;span style=&quot;&quot;&gt;Serializable&lt;/span&gt;&lt;/div&gt;" style="swimlane;fontStyle=1;align=center;verticalAlign=top;childLayout=stackLayout;horizontal=1;startSize=26;horizontalStack=0;resizeParent=1;resizeParentMax=0;resizeLast=0;collapsible=1;marginBottom=0;whiteSpace=wrap;html=1;labelBorderColor=none;labelBackgroundColor=none;fillColor=#CCCCCC;fontColor=#000000;strokeColor=#666666;" parent="F4W6GdJIVFa8Bw8fIA7z-2" vertex="1">
          <mxGeometry x="275" y="1021" width="190" height="70" as="geometry" />
        </mxCell>
        <mxCell id="F4W6GdJIVFa8Bw8fIA7z-469" value="&lt;div style=&quot;font-family: Consolas, &amp;quot;Courier New&amp;quot;, monospace; font-size: 14px; line-height: 19px;&quot;&gt;Base class for OpenFHE serialization&lt;/div&gt;" style="text;strokeColor=#666666;fillColor=#CCCCCC;align=left;verticalAlign=top;spacingLeft=4;spacingRight=4;overflow=hidden;rotatable=0;points=[[0,0.5],[1,0.5]];portConstraint=eastwest;whiteSpace=wrap;html=1;fontColor=#000000;labelBackgroundColor=none;" parent="F4W6GdJIVFa8Bw8fIA7z-468" vertex="1">
          <mxGeometry y="26" width="190" height="44" as="geometry" />
        </mxCell>
        <mxCell id="F4W6GdJIVFa8Bw8fIA7z-473" value="&lt;div style=&quot;font-family: Consolas, &amp;quot;Courier New&amp;quot;, monospace; font-size: 14px; line-height: 19px;&quot;&gt;&lt;div style=&quot;line-height: 19px;&quot;&gt;&lt;div style=&quot;line-height: 19px;&quot;&gt;&lt;div style=&quot;line-height: 19px;&quot;&gt;&lt;div style=&quot;line-height: 19px;&quot;&gt;&lt;div style=&quot;line-height: 19px;&quot;&gt;&lt;div style=&quot;line-height: 19px;&quot;&gt;&lt;div style=&quot;line-height: 19px;&quot;&gt;CryptoParametersCKKSRNS&lt;/div&gt;&lt;/div&gt;&lt;/div&gt;&lt;/div&gt;&lt;/div&gt;&lt;/div&gt;&lt;/div&gt;&lt;/div&gt;" style="swimlane;fontStyle=1;align=center;verticalAlign=top;childLayout=stackLayout;horizontal=1;startSize=26;horizontalStack=0;resizeParent=1;resizeParentMax=0;resizeLast=0;collapsible=1;marginBottom=0;whiteSpace=wrap;html=1;fontColor=#000000;labelBackgroundColor=none;" parent="F4W6GdJIVFa8Bw8fIA7z-2" vertex="1">
          <mxGeometry x="265" y="281" width="210" height="130" as="geometry" />
        </mxCell>
        <mxCell id="F4W6GdJIVFa8Bw8fIA7z-474" value="&lt;div style=&quot;font-family: Consolas, &amp;quot;Courier New&amp;quot;, monospace; font-size: 14px; line-height: 19px;&quot;&gt;&lt;div style=&quot;line-height: 19px;&quot;&gt;&lt;div style=&quot;line-height: 19px;&quot;&gt;&lt;div style=&quot;border-color: var(--border-color);&quot;&gt;main implementation class to capture essential cryptoparameters of&lt;/div&gt;&lt;div style=&quot;border-color: var(--border-color);&quot;&gt;&amp;nbsp;CKKS LBC system&lt;/div&gt;&lt;/div&gt;&lt;/div&gt;&lt;/div&gt;" style="text;strokeColor=none;fillColor=none;align=left;verticalAlign=top;spacingLeft=4;spacingRight=4;overflow=hidden;rotatable=0;points=[[0,0.5],[1,0.5]];portConstraint=eastwest;whiteSpace=wrap;html=1;fontColor=#000000;labelBackgroundColor=none;" parent="F4W6GdJIVFa8Bw8fIA7z-473" vertex="1">
          <mxGeometry y="26" width="210" height="104" as="geometry" />
        </mxCell>
        <mxCell id="F4W6GdJIVFa8Bw8fIA7z-475" value="" style="edgeStyle=orthogonalEdgeStyle;rounded=0;orthogonalLoop=1;jettySize=auto;html=1;fontColor=#000000;labelBackgroundColor=none;" parent="F4W6GdJIVFa8Bw8fIA7z-2" source="F4W6GdJIVFa8Bw8fIA7z-466" target="F4W6GdJIVFa8Bw8fIA7z-473" edge="1">
          <mxGeometry relative="1" as="geometry" />
        </mxCell>
        <mxCell id="F4W6GdJIVFa8Bw8fIA7z-645" value="&lt;div style=&quot;font-family: Consolas, &amp;quot;Courier New&amp;quot;, monospace; font-size: 14px; line-height: 19px;&quot;&gt;&lt;div style=&quot;line-height: 19px;&quot;&gt;&lt;div style=&quot;line-height: 19px;&quot;&gt;&lt;div style=&quot;line-height: 19px;&quot;&gt;&lt;div style=&quot;line-height: 19px;&quot;&gt;SchemeBase&amp;lt;DCRTPoly&amp;gt; &lt;/div&gt;&lt;/div&gt;&lt;/div&gt;&lt;/div&gt;&lt;/div&gt;" style="swimlane;fontStyle=1;align=center;verticalAlign=top;childLayout=stackLayout;horizontal=1;startSize=26;horizontalStack=0;resizeParent=1;resizeParentMax=0;resizeLast=0;collapsible=1;marginBottom=0;whiteSpace=wrap;html=1;fontColor=#000000;labelBackgroundColor=none;" parent="F4W6GdJIVFa8Bw8fIA7z-2" vertex="1">
          <mxGeometry x="540" y="712" width="210" height="100" as="geometry" />
        </mxCell>
        <mxCell id="F4W6GdJIVFa8Bw8fIA7z-646" value="&lt;div style=&quot;font-family: Consolas, &amp;quot;Courier New&amp;quot;, monospace; font-size: 14px; line-height: 19px;&quot;&gt;&lt;div style=&quot;line-height: 19px;&quot;&gt;&lt;div style=&quot;line-height: 19px;&quot;&gt;Abstract interface for public key encryption schemes&lt;/div&gt;&lt;/div&gt;&lt;/div&gt;" style="text;strokeColor=none;fillColor=none;align=left;verticalAlign=top;spacingLeft=4;spacingRight=4;overflow=hidden;rotatable=0;points=[[0,0.5],[1,0.5]];portConstraint=eastwest;whiteSpace=wrap;html=1;fontColor=#000000;labelBackgroundColor=none;" parent="F4W6GdJIVFa8Bw8fIA7z-645" vertex="1">
          <mxGeometry y="26" width="210" height="74" as="geometry" />
        </mxCell>
        <mxCell id="F4W6GdJIVFa8Bw8fIA7z-648" value="&lt;div style=&quot;font-family: Consolas, &amp;quot;Courier New&amp;quot;, monospace; font-size: 14px; line-height: 19px;&quot;&gt;&lt;div style=&quot;line-height: 19px;&quot;&gt;&lt;div style=&quot;line-height: 19px;&quot;&gt;&lt;div style=&quot;line-height: 19px;&quot;&gt;&lt;div style=&quot;line-height: 19px;&quot;&gt;SchemeRNS&lt;/div&gt;&lt;/div&gt;&lt;/div&gt;&lt;/div&gt;&lt;/div&gt;" style="swimlane;fontStyle=1;align=center;verticalAlign=top;childLayout=stackLayout;horizontal=1;startSize=26;horizontalStack=0;resizeParent=1;resizeParentMax=0;resizeLast=0;collapsible=1;marginBottom=0;whiteSpace=wrap;html=1;fontColor=#000000;labelBackgroundColor=none;" parent="F4W6GdJIVFa8Bw8fIA7z-2" vertex="1">
          <mxGeometry x="540" y="582" width="210" height="80" as="geometry" />
        </mxCell>
        <mxCell id="F4W6GdJIVFa8Bw8fIA7z-649" value="&lt;div style=&quot;font-family: Consolas, &amp;quot;Courier New&amp;quot;, monospace; font-size: 14px; line-height: 19px;&quot;&gt;&lt;div style=&quot;line-height: 19px;&quot;&gt;class for encrypting plaintext using LBC&lt;/div&gt;&lt;/div&gt;" style="text;strokeColor=none;fillColor=none;align=left;verticalAlign=top;spacingLeft=4;spacingRight=4;overflow=hidden;rotatable=0;points=[[0,0.5],[1,0.5]];portConstraint=eastwest;whiteSpace=wrap;html=1;fontColor=#000000;labelBackgroundColor=none;" parent="F4W6GdJIVFa8Bw8fIA7z-648" vertex="1">
          <mxGeometry y="26" width="210" height="54" as="geometry" />
        </mxCell>
        <mxCell id="F4W6GdJIVFa8Bw8fIA7z-644" value="" style="edgeStyle=orthogonalEdgeStyle;rounded=0;orthogonalLoop=1;jettySize=auto;html=1;fontColor=#000000;labelBackgroundColor=none;" parent="F4W6GdJIVFa8Bw8fIA7z-2" source="F4W6GdJIVFa8Bw8fIA7z-645" target="F4W6GdJIVFa8Bw8fIA7z-648" edge="1">
          <mxGeometry relative="1" as="geometry" />
        </mxCell>
        <mxCell id="F4W6GdJIVFa8Bw8fIA7z-650" value="&lt;div style=&quot;font-family: Consolas, &amp;quot;Courier New&amp;quot;, monospace; font-size: 14px; line-height: 19px;&quot;&gt;&lt;div style=&quot;line-height: 19px;&quot;&gt;&lt;div style=&quot;line-height: 19px;&quot;&gt;&lt;div style=&quot;line-height: 19px;&quot;&gt;&lt;div style=&quot;line-height: 19px;&quot;&gt;&lt;div style=&quot;line-height: 19px;&quot;&gt;SchemeCKKSRNS&lt;/div&gt;&lt;/div&gt;&lt;/div&gt;&lt;/div&gt;&lt;/div&gt;&lt;/div&gt;" style="swimlane;fontStyle=1;align=center;verticalAlign=top;childLayout=stackLayout;horizontal=1;startSize=26;horizontalStack=0;resizeParent=1;resizeParentMax=0;resizeLast=0;collapsible=1;marginBottom=0;whiteSpace=wrap;html=1;fontColor=#000000;labelBackgroundColor=none;" parent="F4W6GdJIVFa8Bw8fIA7z-2" vertex="1">
          <mxGeometry x="540" y="452" width="210" height="80" as="geometry" />
        </mxCell>
        <mxCell id="F4W6GdJIVFa8Bw8fIA7z-651" value="&lt;div style=&quot;font-family: Consolas, &amp;quot;Courier New&amp;quot;, monospace; font-size: 14px; line-height: 19px;&quot;&gt;&lt;div style=&quot;line-height: 19px;&quot;&gt;class for encrypting plaintext using LBC&lt;/div&gt;&lt;/div&gt;" style="text;strokeColor=none;fillColor=none;align=left;verticalAlign=top;spacingLeft=4;spacingRight=4;overflow=hidden;rotatable=0;points=[[0,0.5],[1,0.5]];portConstraint=eastwest;whiteSpace=wrap;html=1;fontColor=#000000;labelBackgroundColor=none;" parent="F4W6GdJIVFa8Bw8fIA7z-650" vertex="1">
          <mxGeometry y="26" width="210" height="54" as="geometry" />
        </mxCell>
        <mxCell id="F4W6GdJIVFa8Bw8fIA7z-647" value="" style="edgeStyle=orthogonalEdgeStyle;rounded=0;orthogonalLoop=1;jettySize=auto;html=1;fontColor=#000000;labelBackgroundColor=none;" parent="F4W6GdJIVFa8Bw8fIA7z-2" source="F4W6GdJIVFa8Bw8fIA7z-648" target="F4W6GdJIVFa8Bw8fIA7z-650" edge="1">
          <mxGeometry relative="1" as="geometry" />
        </mxCell>
        <mxCell id="F4W6GdJIVFa8Bw8fIA7z-666" style="edgeStyle=orthogonalEdgeStyle;rounded=0;orthogonalLoop=1;jettySize=auto;html=1;entryX=0;entryY=0.5;entryDx=0;entryDy=0;dashed=1;" parent="F4W6GdJIVFa8Bw8fIA7z-2" source="F4W6GdJIVFa8Bw8fIA7z-642" target="F4W6GdJIVFa8Bw8fIA7z-36" edge="1">
          <mxGeometry relative="1" as="geometry" />
        </mxCell>
        <mxCell id="F4W6GdJIVFa8Bw8fIA7z-642" value="&lt;div style=&quot;font-family: Consolas, &amp;quot;Courier New&amp;quot;, monospace; font-size: 14px; line-height: 19px;&quot;&gt;&lt;div style=&quot;line-height: 19px;&quot;&gt;&lt;div style=&quot;line-height: 19px;&quot;&gt;CryptoContextFactory&lt;/div&gt;&lt;/div&gt;&lt;/div&gt;" style="swimlane;fontStyle=1;align=center;verticalAlign=top;childLayout=stackLayout;horizontal=1;startSize=26;horizontalStack=0;resizeParent=1;resizeParentMax=0;resizeLast=0;collapsible=1;marginBottom=0;whiteSpace=wrap;html=1;fontColor=#000000;labelBackgroundColor=none;" parent="F4W6GdJIVFa8Bw8fIA7z-2" vertex="1">
          <mxGeometry x="530" y="91" width="180" height="120" as="geometry" />
        </mxCell>
        <mxCell id="F4W6GdJIVFa8Bw8fIA7z-643" value="&lt;div style=&quot;font-family: Consolas, &amp;quot;Courier New&amp;quot;, monospace; font-size: 14px; line-height: 19px;&quot;&gt;&lt;div style=&quot;line-height: 19px;&quot;&gt;A class that contains all generated contexts and static methods to access/release them&lt;/div&gt;&lt;/div&gt;" style="text;strokeColor=none;fillColor=none;align=left;verticalAlign=top;spacingLeft=4;spacingRight=4;overflow=hidden;rotatable=0;points=[[0,0.5],[1,0.5]];portConstraint=eastwest;whiteSpace=wrap;html=1;fontColor=#000000;labelBackgroundColor=none;" parent="F4W6GdJIVFa8Bw8fIA7z-642" vertex="1">
          <mxGeometry y="26" width="180" height="94" as="geometry" />
        </mxCell>
        <mxCell id="F4W6GdJIVFa8Bw8fIA7z-664" style="edgeStyle=orthogonalEdgeStyle;rounded=0;orthogonalLoop=1;jettySize=auto;html=1;exitX=1;exitY=0.5;exitDx=0;exitDy=0;entryX=0;entryY=0.5;entryDx=0;entryDy=0;dashed=1;" parent="F4W6GdJIVFa8Bw8fIA7z-2" source="F4W6GdJIVFa8Bw8fIA7z-474" target="F4W6GdJIVFa8Bw8fIA7z-36" edge="1">
          <mxGeometry relative="1" as="geometry">
            <Array as="points">
              <mxPoint x="620" y="359" />
              <mxPoint x="620" y="413" />
            </Array>
          </mxGeometry>
        </mxCell>
        <mxCell id="F4W6GdJIVFa8Bw8fIA7z-665" style="edgeStyle=orthogonalEdgeStyle;rounded=0;orthogonalLoop=1;jettySize=auto;html=1;exitX=1;exitY=0.5;exitDx=0;exitDy=0;dashed=1;" parent="F4W6GdJIVFa8Bw8fIA7z-2" source="F4W6GdJIVFa8Bw8fIA7z-651" target="F4W6GdJIVFa8Bw8fIA7z-36" edge="1">
          <mxGeometry relative="1" as="geometry" />
        </mxCell>
        <mxCell id="F4W6GdJIVFa8Bw8fIA7z-233" value="&lt;b style=&quot;border-color: var(--border-color); font-size: 18px;&quot;&gt;Provide an Context object:&lt;font color=&quot;#ff6666&quot;&gt;cc&lt;/font&gt;&lt;/b&gt;" style="text;html=1;strokeColor=none;fillColor=none;align=center;verticalAlign=middle;whiteSpace=wrap;rounded=0;strokeWidth=2;fontSize=18;" parent="1" vertex="1">
          <mxGeometry x="1477.5" y="60" width="290" height="60" as="geometry" />
        </mxCell>
        <mxCell id="F4W6GdJIVFa8Bw8fIA7z-440" value="" style="edgeStyle=orthogonalEdgeStyle;rounded=0;orthogonalLoop=1;jettySize=auto;html=1;fontColor=#000000;labelBackgroundColor=none;" parent="1" source="F4W6GdJIVFa8Bw8fIA7z-436" target="F4W6GdJIVFa8Bw8fIA7z-438" edge="1">
          <mxGeometry relative="1" as="geometry" />
        </mxCell>
        <mxCell id="F4W6GdJIVFa8Bw8fIA7z-436" value="&lt;div style=&quot;font-family: Consolas, &amp;quot;Courier New&amp;quot;, monospace; font-size: 14px; line-height: 19px;&quot;&gt;&lt;div style=&quot;line-height: 19px;&quot;&gt;&lt;div style=&quot;line-height: 19px;&quot;&gt;&lt;div style=&quot;line-height: 19px;&quot;&gt;PKEBase&amp;lt;DCRTPoly&amp;gt;&lt;/div&gt;&lt;/div&gt;&lt;/div&gt;&lt;/div&gt;" style="swimlane;fontStyle=1;align=center;verticalAlign=top;childLayout=stackLayout;horizontal=1;startSize=26;horizontalStack=0;resizeParent=1;resizeParentMax=0;resizeLast=0;collapsible=1;marginBottom=0;whiteSpace=wrap;html=1;fontColor=#000000;labelBackgroundColor=none;" parent="1" vertex="1">
          <mxGeometry x="827" y="1660" width="210" height="110" as="geometry" />
        </mxCell>
        <mxCell id="F4W6GdJIVFa8Bw8fIA7z-437" value="&lt;div style=&quot;font-family: Consolas, &amp;quot;Courier New&amp;quot;, monospace; font-size: 14px; line-height: 19px;&quot;&gt;&lt;div style=&quot;line-height: 19px;&quot;&gt;Abstract interface for encryption algorithm&lt;/div&gt;&lt;/div&gt;" style="text;strokeColor=none;fillColor=none;align=left;verticalAlign=top;spacingLeft=4;spacingRight=4;overflow=hidden;rotatable=0;points=[[0,0.5],[1,0.5]];portConstraint=eastwest;whiteSpace=wrap;html=1;fontColor=#000000;labelBackgroundColor=none;" parent="F4W6GdJIVFa8Bw8fIA7z-436" vertex="1">
          <mxGeometry y="26" width="210" height="84" as="geometry" />
        </mxCell>
        <mxCell id="F4W6GdJIVFa8Bw8fIA7z-443" value="" style="edgeStyle=orthogonalEdgeStyle;rounded=0;orthogonalLoop=1;jettySize=auto;html=1;fontColor=#000000;labelBackgroundColor=none;" parent="1" source="F4W6GdJIVFa8Bw8fIA7z-438" target="F4W6GdJIVFa8Bw8fIA7z-441" edge="1">
          <mxGeometry relative="1" as="geometry" />
        </mxCell>
        <mxCell id="F4W6GdJIVFa8Bw8fIA7z-438" value="&lt;div style=&quot;font-family: Consolas, &amp;quot;Courier New&amp;quot;, monospace; font-size: 14px; line-height: 19px;&quot;&gt;&lt;div style=&quot;line-height: 19px;&quot;&gt;&lt;div style=&quot;line-height: 19px;&quot;&gt;&lt;div style=&quot;line-height: 19px;&quot;&gt;PKERNS&lt;/div&gt;&lt;/div&gt;&lt;/div&gt;&lt;/div&gt;" style="swimlane;fontStyle=1;align=center;verticalAlign=top;childLayout=stackLayout;horizontal=1;startSize=26;horizontalStack=0;resizeParent=1;resizeParentMax=0;resizeLast=0;collapsible=1;marginBottom=0;whiteSpace=wrap;html=1;fontColor=#000000;labelBackgroundColor=none;" parent="1" vertex="1">
          <mxGeometry x="827" y="1470" width="210" height="134" as="geometry" />
        </mxCell>
        <mxCell id="F4W6GdJIVFa8Bw8fIA7z-663" value="&lt;div style=&quot;font-family: Consolas, &amp;quot;Courier New&amp;quot;, monospace; font-size: 14px; line-height: 19px;&quot;&gt;&lt;div style=&quot;line-height: 19px;&quot;&gt;class for encrypting plaintext using LBC&lt;/div&gt;&lt;/div&gt;" style="text;strokeColor=none;fillColor=none;align=left;verticalAlign=top;spacingLeft=4;spacingRight=4;overflow=hidden;rotatable=0;points=[[0,0.5],[1,0.5]];portConstraint=eastwest;whiteSpace=wrap;html=1;fontColor=#000000;labelBackgroundColor=none;" parent="F4W6GdJIVFa8Bw8fIA7z-438" vertex="1">
          <mxGeometry y="26" width="210" height="54" as="geometry" />
        </mxCell>
        <mxCell id="F4W6GdJIVFa8Bw8fIA7z-439" value="&lt;div style=&quot;font-family: Consolas, &amp;quot;Courier New&amp;quot;, monospace; font-size: 14px; line-height: 19px;&quot;&gt;&lt;div style=&quot;line-height: 19px;&quot;&gt;class for encrypting plaintext using LBC&lt;/div&gt;&lt;/div&gt;" style="text;strokeColor=none;fillColor=none;align=left;verticalAlign=top;spacingLeft=4;spacingRight=4;overflow=hidden;rotatable=0;points=[[0,0.5],[1,0.5]];portConstraint=eastwest;whiteSpace=wrap;html=1;fontColor=#000000;labelBackgroundColor=none;" parent="F4W6GdJIVFa8Bw8fIA7z-438" vertex="1">
          <mxGeometry y="80" width="210" height="54" as="geometry" />
        </mxCell>
        <mxCell id="F4W6GdJIVFa8Bw8fIA7z-441" value="&lt;div style=&quot;font-family: Consolas, &amp;quot;Courier New&amp;quot;, monospace; font-size: 14px; line-height: 19px;&quot;&gt;&lt;div style=&quot;line-height: 19px;&quot;&gt;&lt;div style=&quot;line-height: 19px;&quot;&gt;&lt;div style=&quot;line-height: 19px;&quot;&gt;&lt;div style=&quot;line-height: 19px;&quot;&gt;PKECKKSRNS&lt;/div&gt;&lt;/div&gt;&lt;/div&gt;&lt;/div&gt;&lt;/div&gt;" style="swimlane;fontStyle=1;align=center;verticalAlign=top;childLayout=stackLayout;horizontal=1;startSize=26;horizontalStack=0;resizeParent=1;resizeParentMax=0;resizeLast=0;collapsible=1;marginBottom=0;whiteSpace=wrap;html=1;fontColor=#000000;labelBackgroundColor=none;" parent="1" vertex="1">
          <mxGeometry x="827" y="1340" width="210" height="80" as="geometry" />
        </mxCell>
        <mxCell id="F4W6GdJIVFa8Bw8fIA7z-442" value="&lt;div style=&quot;font-family: Consolas, &amp;quot;Courier New&amp;quot;, monospace; font-size: 14px; line-height: 19px;&quot;&gt;&lt;div style=&quot;line-height: 19px;&quot;&gt;class for encrypting plaintext using LBC&lt;/div&gt;&lt;/div&gt;" style="text;strokeColor=none;fillColor=none;align=left;verticalAlign=top;spacingLeft=4;spacingRight=4;overflow=hidden;rotatable=0;points=[[0,0.5],[1,0.5]];portConstraint=eastwest;whiteSpace=wrap;html=1;fontColor=#000000;labelBackgroundColor=none;" parent="F4W6GdJIVFa8Bw8fIA7z-441" vertex="1">
          <mxGeometry y="26" width="210" height="54" as="geometry" />
        </mxCell>
        <mxCell id="F4W6GdJIVFa8Bw8fIA7z-444" value="" style="edgeStyle=orthogonalEdgeStyle;rounded=0;orthogonalLoop=1;jettySize=auto;html=1;fontColor=#000000;labelBackgroundColor=none;" parent="1" source="F4W6GdJIVFa8Bw8fIA7z-445" target="F4W6GdJIVFa8Bw8fIA7z-448" edge="1">
          <mxGeometry relative="1" as="geometry" />
        </mxCell>
        <mxCell id="F4W6GdJIVFa8Bw8fIA7z-445" value="&lt;div style=&quot;font-family: Consolas, &amp;quot;Courier New&amp;quot;, monospace; font-size: 14px; line-height: 19px;&quot;&gt;&lt;div style=&quot;line-height: 19px;&quot;&gt;&lt;div style=&quot;line-height: 19px;&quot;&gt;&lt;div style=&quot;line-height: 19px;&quot;&gt;&lt;div style=&quot;line-height: 19px;&quot;&gt;ParameterGenerationBase&amp;lt;DCRTPoly&amp;gt;&lt;/div&gt;&lt;/div&gt;&lt;/div&gt;&lt;/div&gt;&lt;/div&gt;" style="swimlane;fontStyle=1;align=center;verticalAlign=top;childLayout=stackLayout;horizontal=1;startSize=26;horizontalStack=0;resizeParent=1;resizeParentMax=0;resizeLast=0;collapsible=1;marginBottom=0;whiteSpace=wrap;html=1;fontColor=#000000;labelBackgroundColor=none;" parent="1" vertex="1">
          <mxGeometry x="1080" y="1622" width="290" height="80" as="geometry" />
        </mxCell>
        <mxCell id="F4W6GdJIVFa8Bw8fIA7z-446" value="&lt;div style=&quot;font-family: Consolas, &amp;quot;Courier New&amp;quot;, monospace; font-size: 14px; line-height: 19px;&quot;&gt;&lt;div style=&quot;line-height: 19px;&quot;&gt;&lt;div style=&quot;line-height: 19px;&quot;&gt;Abstract interface for parameter generation algorithm&lt;/div&gt;&lt;/div&gt;&lt;/div&gt;" style="text;strokeColor=none;fillColor=none;align=left;verticalAlign=top;spacingLeft=4;spacingRight=4;overflow=hidden;rotatable=0;points=[[0,0.5],[1,0.5]];portConstraint=eastwest;whiteSpace=wrap;html=1;fontColor=#000000;labelBackgroundColor=none;" parent="F4W6GdJIVFa8Bw8fIA7z-445" vertex="1">
          <mxGeometry y="26" width="290" height="54" as="geometry" />
        </mxCell>
        <mxCell id="F4W6GdJIVFa8Bw8fIA7z-447" value="" style="edgeStyle=orthogonalEdgeStyle;rounded=0;orthogonalLoop=1;jettySize=auto;html=1;fontColor=#000000;labelBackgroundColor=none;" parent="1" source="F4W6GdJIVFa8Bw8fIA7z-448" target="F4W6GdJIVFa8Bw8fIA7z-450" edge="1">
          <mxGeometry relative="1" as="geometry" />
        </mxCell>
        <mxCell id="F4W6GdJIVFa8Bw8fIA7z-448" value="&lt;div style=&quot;font-family: Consolas, &amp;quot;Courier New&amp;quot;, monospace; font-size: 14px; line-height: 19px;&quot;&gt;&lt;div style=&quot;line-height: 19px;&quot;&gt;&lt;div style=&quot;line-height: 19px;&quot;&gt;&lt;div style=&quot;line-height: 19px;&quot;&gt;&lt;div style=&quot;line-height: 19px;&quot;&gt;ParameterGenerationRNS&lt;/div&gt;&lt;/div&gt;&lt;/div&gt;&lt;/div&gt;&lt;/div&gt;" style="swimlane;fontStyle=1;align=center;verticalAlign=top;childLayout=stackLayout;horizontal=1;startSize=26;horizontalStack=0;resizeParent=1;resizeParentMax=0;resizeLast=0;collapsible=1;marginBottom=0;whiteSpace=wrap;html=1;fontColor=#000000;labelBackgroundColor=none;" parent="1" vertex="1">
          <mxGeometry x="1115" y="1462" width="220" height="116" as="geometry" />
        </mxCell>
        <mxCell id="F4W6GdJIVFa8Bw8fIA7z-449" value="&lt;div style=&quot;font-family: Consolas, &amp;quot;Courier New&amp;quot;, monospace; font-size: 14px; line-height: 19px;&quot;&gt;&lt;div style=&quot;line-height: 19px;&quot;&gt;class for&amp;nbsp;Method for computing all derived parameters based on chosen primitive&lt;/div&gt;&lt;/div&gt;" style="text;strokeColor=none;fillColor=none;align=left;verticalAlign=top;spacingLeft=4;spacingRight=4;overflow=hidden;rotatable=0;points=[[0,0.5],[1,0.5]];portConstraint=eastwest;whiteSpace=wrap;html=1;fontColor=#000000;labelBackgroundColor=none;" parent="F4W6GdJIVFa8Bw8fIA7z-448" vertex="1">
          <mxGeometry y="26" width="220" height="90" as="geometry" />
        </mxCell>
        <mxCell id="F4W6GdJIVFa8Bw8fIA7z-450" value="&lt;div style=&quot;font-family: Consolas, &amp;quot;Courier New&amp;quot;, monospace; font-size: 14px; line-height: 19px;&quot;&gt;&lt;div style=&quot;line-height: 19px;&quot;&gt;&lt;div style=&quot;line-height: 19px;&quot;&gt;&lt;div style=&quot;line-height: 19px;&quot;&gt;&lt;div style=&quot;line-height: 19px;&quot;&gt;&lt;div style=&quot;line-height: 19px;&quot;&gt;ParameterGenerationCKKSRNS &lt;/div&gt;&lt;/div&gt;&lt;/div&gt;&lt;/div&gt;&lt;/div&gt;&lt;/div&gt;" style="swimlane;fontStyle=1;align=center;verticalAlign=top;childLayout=stackLayout;horizontal=1;startSize=26;horizontalStack=0;resizeParent=1;resizeParentMax=0;resizeLast=0;collapsible=1;marginBottom=0;whiteSpace=wrap;html=1;fontColor=#000000;labelBackgroundColor=none;" parent="1" vertex="1">
          <mxGeometry x="1120" y="1340" width="210" height="60" as="geometry" />
        </mxCell>
        <mxCell id="F4W6GdJIVFa8Bw8fIA7z-451" value="&lt;div style=&quot;font-family: Consolas, &amp;quot;Courier New&amp;quot;, monospace; font-size: 14px; line-height: 19px;&quot;&gt;&lt;div style=&quot;line-height: 19px;&quot;&gt;+method:ParamsGenCKKSRNS&lt;/div&gt;&lt;/div&gt;" style="text;strokeColor=none;fillColor=none;align=left;verticalAlign=top;spacingLeft=4;spacingRight=4;overflow=hidden;rotatable=0;points=[[0,0.5],[1,0.5]];portConstraint=eastwest;whiteSpace=wrap;html=1;fontColor=#000000;labelBackgroundColor=none;" parent="F4W6GdJIVFa8Bw8fIA7z-450" vertex="1">
          <mxGeometry y="26" width="210" height="34" as="geometry" />
        </mxCell>
        <mxCell id="F4W6GdJIVFa8Bw8fIA7z-452" value="" style="edgeStyle=orthogonalEdgeStyle;rounded=0;orthogonalLoop=1;jettySize=auto;html=1;fontColor=#000000;labelBackgroundColor=none;" parent="1" source="F4W6GdJIVFa8Bw8fIA7z-453" target="F4W6GdJIVFa8Bw8fIA7z-456" edge="1">
          <mxGeometry relative="1" as="geometry" />
        </mxCell>
        <mxCell id="F4W6GdJIVFa8Bw8fIA7z-453" value="&lt;div style=&quot;font-family: Consolas, &amp;quot;Courier New&amp;quot;, monospace; font-size: 14px; line-height: 19px;&quot;&gt;&lt;div style=&quot;line-height: 19px;&quot;&gt;&lt;div style=&quot;line-height: 19px;&quot;&gt;&lt;div style=&quot;line-height: 19px;&quot;&gt;&lt;div style=&quot;line-height: 19px;&quot;&gt;LeveledSHEBase&lt;/div&gt;&lt;/div&gt;&lt;/div&gt;&lt;/div&gt;&lt;/div&gt;" style="swimlane;fontStyle=1;align=center;verticalAlign=top;childLayout=stackLayout;horizontal=1;startSize=26;horizontalStack=0;resizeParent=1;resizeParentMax=0;resizeLast=0;collapsible=1;marginBottom=0;whiteSpace=wrap;html=1;fontColor=#000000;labelBackgroundColor=none;" parent="1" vertex="1">
          <mxGeometry x="1585" y="3630" width="210" height="80" as="geometry" />
        </mxCell>
        <mxCell id="F4W6GdJIVFa8Bw8fIA7z-454" value="&lt;div style=&quot;font-family: Consolas, &amp;quot;Courier New&amp;quot;, monospace; font-size: 14px; line-height: 19px;&quot;&gt;&lt;div style=&quot;line-height: 19px;&quot;&gt;&lt;div style=&quot;line-height: 19px;&quot;&gt;Abstract interface class for LBC SHE algorithms&lt;/div&gt;&lt;/div&gt;&lt;/div&gt;" style="text;strokeColor=none;fillColor=none;align=left;verticalAlign=top;spacingLeft=4;spacingRight=4;overflow=hidden;rotatable=0;points=[[0,0.5],[1,0.5]];portConstraint=eastwest;whiteSpace=wrap;html=1;fontColor=#000000;labelBackgroundColor=none;" parent="F4W6GdJIVFa8Bw8fIA7z-453" vertex="1">
          <mxGeometry y="26" width="210" height="54" as="geometry" />
        </mxCell>
        <mxCell id="F4W6GdJIVFa8Bw8fIA7z-455" value="" style="edgeStyle=orthogonalEdgeStyle;rounded=0;orthogonalLoop=1;jettySize=auto;html=1;fontColor=#000000;labelBackgroundColor=none;" parent="1" source="F4W6GdJIVFa8Bw8fIA7z-456" target="F4W6GdJIVFa8Bw8fIA7z-458" edge="1">
          <mxGeometry relative="1" as="geometry" />
        </mxCell>
        <mxCell id="F4W6GdJIVFa8Bw8fIA7z-456" value="&lt;div style=&quot;font-family: Consolas, &amp;quot;Courier New&amp;quot;, monospace; font-size: 14px; line-height: 19px;&quot;&gt;&lt;div style=&quot;line-height: 19px;&quot;&gt;&lt;div style=&quot;line-height: 19px;&quot;&gt;&lt;div style=&quot;line-height: 19px;&quot;&gt;&lt;div style=&quot;line-height: 19px;&quot;&gt;LeveledSHERNS&lt;/div&gt;&lt;/div&gt;&lt;/div&gt;&lt;/div&gt;&lt;/div&gt;" style="swimlane;fontStyle=1;align=center;verticalAlign=top;childLayout=stackLayout;horizontal=1;startSize=26;horizontalStack=0;resizeParent=1;resizeParentMax=0;resizeLast=0;collapsible=1;marginBottom=0;whiteSpace=wrap;html=1;fontColor=#000000;labelBackgroundColor=none;" parent="1" vertex="1">
          <mxGeometry x="1540" y="3420" width="300" height="160" as="geometry" />
        </mxCell>
        <mxCell id="F4W6GdJIVFa8Bw8fIA7z-457" value="&lt;div style=&quot;font-family: Consolas, &amp;quot;Courier New&amp;quot;, monospace; font-size: 14px; line-height: 19px;&quot;&gt;&lt;div style=&quot;line-height: 19px;&quot;&gt;+method:Add&lt;/div&gt;&lt;div style=&quot;line-height: 19px;&quot;&gt;+method:Sub&lt;/div&gt;&lt;div style=&quot;line-height: 19px;&quot;&gt;+method:Mul&lt;/div&gt;&lt;div style=&quot;line-height: 19px;&quot;&gt;+method:ModReduce&lt;/div&gt;&lt;div style=&quot;line-height: 19px;&quot;&gt;+method:LevelReduce&lt;/div&gt;&lt;div style=&quot;line-height: 19px;&quot;&gt;+method:ModReduceInternal(recaling)&lt;/div&gt;&lt;/div&gt;" style="text;strokeColor=none;fillColor=none;align=left;verticalAlign=top;spacingLeft=4;spacingRight=4;overflow=hidden;rotatable=0;points=[[0,0.5],[1,0.5]];portConstraint=eastwest;whiteSpace=wrap;html=1;fontColor=#000000;labelBackgroundColor=none;" parent="F4W6GdJIVFa8Bw8fIA7z-456" vertex="1">
          <mxGeometry y="26" width="300" height="134" as="geometry" />
        </mxCell>
        <mxCell id="F4W6GdJIVFa8Bw8fIA7z-458" value="&lt;div style=&quot;font-family: Consolas, &amp;quot;Courier New&amp;quot;, monospace; font-size: 14px; line-height: 19px;&quot;&gt;&lt;div style=&quot;line-height: 19px;&quot;&gt;&lt;div style=&quot;line-height: 19px;&quot;&gt;&lt;div style=&quot;line-height: 19px;&quot;&gt;&lt;div style=&quot;line-height: 19px;&quot;&gt;&lt;div style=&quot;line-height: 19px;&quot;&gt;LeveledSHECKKSRNS&lt;/div&gt;&lt;/div&gt;&lt;/div&gt;&lt;/div&gt;&lt;/div&gt;&lt;/div&gt;" style="swimlane;fontStyle=1;align=center;verticalAlign=top;childLayout=stackLayout;horizontal=1;startSize=26;horizontalStack=0;resizeParent=1;resizeParentMax=0;resizeLast=0;collapsible=1;marginBottom=0;whiteSpace=wrap;html=1;fontColor=#000000;labelBackgroundColor=none;" parent="1" vertex="1">
          <mxGeometry x="1585" y="3290" width="210" height="80" as="geometry" />
        </mxCell>
        <mxCell id="F4W6GdJIVFa8Bw8fIA7z-459" value="&lt;div style=&quot;font-family: Consolas, &amp;quot;Courier New&amp;quot;, monospace; font-size: 14px; line-height: 19px;&quot;&gt;&lt;div style=&quot;line-height: 19px;&quot;&gt;class for encrypting plaintext using LBC&lt;/div&gt;&lt;/div&gt;" style="text;strokeColor=none;fillColor=none;align=left;verticalAlign=top;spacingLeft=4;spacingRight=4;overflow=hidden;rotatable=0;points=[[0,0.5],[1,0.5]];portConstraint=eastwest;whiteSpace=wrap;html=1;fontColor=#000000;labelBackgroundColor=none;" parent="F4W6GdJIVFa8Bw8fIA7z-458" vertex="1">
          <mxGeometry y="26" width="210" height="54" as="geometry" />
        </mxCell>
        <mxCell id="F4W6GdJIVFa8Bw8fIA7z-478" value="&lt;div style=&quot;font-family: Consolas, &amp;quot;Courier New&amp;quot;, monospace; line-height: 19px;&quot;&gt;&lt;font style=&quot;font-size: 17px;&quot;&gt;NTT &amp;amp;&amp;amp; INTT&lt;/font&gt;&lt;/div&gt;" style="swimlane;html=1;startSize=50;horizontal=1;containerType=tree;glass=0;align=center;verticalAlign=middle;" parent="1" vertex="1" collapsed="1">
          <mxGeometry x="910" y="2390" width="190" height="40" as="geometry">
            <mxRectangle x="910" y="2390" width="1730" height="690" as="alternateBounds" />
          </mxGeometry>
        </mxCell>
        <mxCell id="F4W6GdJIVFa8Bw8fIA7z-526" value="" style="edgeStyle=orthogonalEdgeStyle;rounded=0;orthogonalLoop=1;jettySize=auto;html=1;labelBackgroundColor=none;fontColor=#000000;" parent="F4W6GdJIVFa8Bw8fIA7z-478" source="F4W6GdJIVFa8Bw8fIA7z-523" target="F4W6GdJIVFa8Bw8fIA7z-527" edge="1">
          <mxGeometry relative="1" as="geometry" />
        </mxCell>
        <mxCell id="F4W6GdJIVFa8Bw8fIA7z-527" value="&lt;div style=&quot;font-family: Consolas, &amp;quot;Courier New&amp;quot;, monospace; font-size: 14px; line-height: 19px;&quot;&gt;&lt;div style=&quot;line-height: 19px;&quot;&gt;&lt;div style=&quot;line-height: 19px;&quot;&gt;&lt;div style=&quot;line-height: 19px;&quot;&gt;&lt;div style=&quot;line-height: 19px;&quot;&gt;&lt;div style=&quot;line-height: 19px;&quot;&gt;&lt;div style=&quot;line-height: 19px;&quot;&gt;&lt;div style=&quot;line-height: 19px;&quot;&gt;ChineseRemainderTransformFTTNtl&lt;/div&gt;&lt;/div&gt;&lt;/div&gt;&lt;/div&gt;&lt;/div&gt;&lt;/div&gt;&lt;/div&gt;&lt;/div&gt;" style="swimlane;fontStyle=1;align=center;verticalAlign=top;childLayout=stackLayout;horizontal=1;startSize=26;horizontalStack=0;resizeParent=1;resizeParentMax=0;resizeLast=0;collapsible=1;marginBottom=0;whiteSpace=wrap;html=1;labelBackgroundColor=none;fontColor=#000000;" parent="F4W6GdJIVFa8Bw8fIA7z-478" vertex="1">
          <mxGeometry x="625" y="220" width="550" height="80" as="geometry" />
        </mxCell>
        <mxCell id="F4W6GdJIVFa8Bw8fIA7z-528" value="&lt;div style=&quot;font-family: Consolas, &amp;quot;Courier New&amp;quot;, monospace; font-size: 14px; line-height: 19px;&quot;&gt;&lt;div style=&quot;line-height: 19px;&quot;&gt;&lt;div style=&quot;line-height: 19px;&quot;&gt;+method:&amp;nbsp;PreCompute&lt;span style=&quot;&quot;&gt;(&lt;/span&gt;&lt;span style=&quot;&quot;&gt;const&lt;/span&gt;&lt;span style=&quot;&quot;&gt; &lt;/span&gt;&lt;span style=&quot;&quot;&gt;IntType&lt;/span&gt;&lt;span style=&quot;&quot;&gt;&amp;amp;&lt;/span&gt;&lt;span style=&quot;&quot;&gt; &lt;/span&gt;&lt;span style=&quot;&quot;&gt;rootOfUnity&lt;/span&gt;&lt;span style=&quot;&quot;&gt;, &lt;/span&gt;&lt;span style=&quot;&quot;&gt;const&lt;/span&gt;&lt;span style=&quot;&quot;&gt; &lt;/span&gt;&lt;span style=&quot;&quot;&gt;usint&lt;/span&gt;&lt;span style=&quot;&quot;&gt; &lt;/span&gt;&lt;span style=&quot;&quot;&gt;CycloOrder&lt;/span&gt;&lt;span style=&quot;&quot;&gt;,&lt;/span&gt;&lt;span style=&quot;&quot;&gt;const&lt;/span&gt; &lt;span style=&quot;&quot;&gt;IntType&lt;/span&gt;&lt;span style=&quot;&quot;&gt;&amp;amp;&lt;/span&gt; &lt;span style=&quot;&quot;&gt;modulus&lt;/span&gt;)&amp;nbsp;&amp;nbsp;&lt;/div&gt;&lt;/div&gt;&lt;/div&gt;" style="text;strokeColor=none;fillColor=none;align=left;verticalAlign=top;spacingLeft=4;spacingRight=4;overflow=hidden;rotatable=0;points=[[0,0.5],[1,0.5]];portConstraint=eastwest;whiteSpace=wrap;html=1;labelBackgroundColor=none;fontColor=#000000;" parent="F4W6GdJIVFa8Bw8fIA7z-527" vertex="1">
          <mxGeometry y="26" width="550" height="54" as="geometry" />
        </mxCell>
        <mxCell id="F4W6GdJIVFa8Bw8fIA7z-536" value="&lt;font style=&quot;font-size: 14px;&quot;&gt;Struct Object:&lt;font style=&quot;font-size: 14px;&quot;&gt;crtFTT&lt;/font&gt;&lt;/font&gt;" style="text;html=1;align=center;verticalAlign=middle;resizable=0;points=[];autosize=1;strokeColor=none;fillColor=none;labelBackgroundColor=none;fontColor=#000000;" parent="F4W6GdJIVFa8Bw8fIA7z-478" vertex="1">
          <mxGeometry x="890" y="170" width="150" height="30" as="geometry" />
        </mxCell>
        <mxCell id="F4W6GdJIVFa8Bw8fIA7z-523" value="&lt;div style=&quot;font-family: Consolas, &amp;quot;Courier New&amp;quot;, monospace; font-size: 14px; line-height: 19px;&quot;&gt;&lt;div style=&quot;line-height: 19px;&quot;&gt;&lt;div style=&quot;line-height: 19px;&quot;&gt;&lt;div style=&quot;line-height: 19px;&quot;&gt;&lt;div style=&quot;line-height: 19px;&quot;&gt;ChineseRemainderTransformFTTInterface&lt;/div&gt;&lt;/div&gt;&lt;/div&gt;&lt;/div&gt;&lt;/div&gt;" style="swimlane;fontStyle=1;align=center;verticalAlign=top;childLayout=stackLayout;horizontal=1;startSize=26;horizontalStack=0;resizeParent=1;resizeParentMax=0;resizeLast=0;collapsible=1;marginBottom=0;whiteSpace=wrap;html=1;labelBackgroundColor=none;fontColor=#000000;" parent="F4W6GdJIVFa8Bw8fIA7z-478" vertex="1">
          <mxGeometry x="710" y="70" width="380" height="90" as="geometry" />
        </mxCell>
        <mxCell id="F4W6GdJIVFa8Bw8fIA7z-524" value="&lt;div style=&quot;font-family: Consolas, &amp;quot;Courier New&amp;quot;, monospace; font-size: 14px; line-height: 19px;&quot;&gt;&lt;div style=&quot;line-height: 19px;&quot;&gt;&lt;div style=&quot;line-height: 19px;&quot;&gt;Golden Chinese Remainder Transform FFT implementation&lt;/div&gt;&lt;/div&gt;&lt;/div&gt;" style="text;strokeColor=none;fillColor=none;align=left;verticalAlign=top;spacingLeft=4;spacingRight=4;overflow=hidden;rotatable=0;points=[[0,0.5],[1,0.5]];portConstraint=eastwest;whiteSpace=wrap;html=1;labelBackgroundColor=none;fontColor=#000000;" parent="F4W6GdJIVFa8Bw8fIA7z-523" vertex="1">
          <mxGeometry y="26" width="380" height="64" as="geometry" />
        </mxCell>
        <mxCell id="F4W6GdJIVFa8Bw8fIA7z-546" value="&lt;p style=&quot;margin:0px;margin-top:4px;text-align:center;text-decoration:underline;&quot;&gt;&lt;b&gt;&lt;font&gt;Function:RootofUnity&lt;/font&gt;&lt;/b&gt;&lt;/p&gt;&lt;hr&gt;&lt;div style=&quot;font-family: Consolas, &amp;quot;Courier New&amp;quot;, monospace; font-size: 14px; line-height: 19px;&quot;&gt;&lt;div style=&quot;line-height: 19px;&quot;&gt;finds roots of unity for given input(nbtheory.h)&lt;/div&gt;&lt;/div&gt;" style="verticalAlign=top;align=left;overflow=fill;fontSize=12;fontFamily=Helvetica;html=1;whiteSpace=wrap;rounded=1;fillColor=#E6E6E6;labelBackgroundColor=none;fontColor=#67AB9F;" parent="F4W6GdJIVFa8Bw8fIA7z-478" vertex="1">
          <mxGeometry x="1290" y="230" width="373.5" height="60" as="geometry" />
        </mxCell>
        <mxCell id="F4W6GdJIVFa8Bw8fIA7z-547" style="edgeStyle=orthogonalEdgeStyle;rounded=0;orthogonalLoop=1;jettySize=auto;html=1;entryX=1.002;entryY=0.259;entryDx=0;entryDy=0;entryPerimeter=0;dashed=1;labelBackgroundColor=none;fontColor=#000000;" parent="F4W6GdJIVFa8Bw8fIA7z-478" source="F4W6GdJIVFa8Bw8fIA7z-546" target="F4W6GdJIVFa8Bw8fIA7z-528" edge="1">
          <mxGeometry relative="1" as="geometry" />
        </mxCell>
        <mxCell id="F4W6GdJIVFa8Bw8fIA7z-485" value="&lt;div style=&quot;font-family: Consolas, &amp;quot;Courier New&amp;quot;, monospace; font-size: 14px; line-height: 19px;&quot;&gt;&lt;div style=&quot;line-height: 19px;&quot;&gt;&lt;div style=&quot;line-height: 19px;&quot;&gt;&lt;div style=&quot;line-height: 19px;&quot;&gt;BigIntegerInterface&amp;lt;NativeIntegerT&amp;lt;NativeInt&amp;gt;&lt;/div&gt;&lt;/div&gt;&lt;/div&gt;&lt;/div&gt;" style="swimlane;fontStyle=1;align=center;verticalAlign=top;childLayout=stackLayout;horizontal=1;startSize=26;horizontalStack=0;resizeParent=1;resizeParentMax=0;resizeLast=0;collapsible=1;marginBottom=0;whiteSpace=wrap;html=1;labelBackgroundColor=none;fontColor=#000000;" parent="F4W6GdJIVFa8Bw8fIA7z-478" vertex="1">
          <mxGeometry x="710" y="552" width="380" height="90" as="geometry" />
        </mxCell>
        <mxCell id="F4W6GdJIVFa8Bw8fIA7z-486" value="&lt;div style=&quot;font-family: Consolas, &amp;quot;Courier New&amp;quot;, monospace; font-size: 14px; line-height: 19px;&quot;&gt;&lt;div style=&quot;line-height: 19px;&quot;&gt;This file contains the interfaces for the math integer data types&lt;/div&gt;&lt;/div&gt;" style="text;strokeColor=none;fillColor=none;align=left;verticalAlign=top;spacingLeft=4;spacingRight=4;overflow=hidden;rotatable=0;points=[[0,0.5],[1,0.5]];portConstraint=eastwest;whiteSpace=wrap;html=1;labelBackgroundColor=none;fontColor=#000000;" parent="F4W6GdJIVFa8Bw8fIA7z-485" vertex="1">
          <mxGeometry y="26" width="380" height="64" as="geometry" />
        </mxCell>
        <mxCell id="F4W6GdJIVFa8Bw8fIA7z-509" value="" style="edgeStyle=orthogonalEdgeStyle;rounded=0;orthogonalLoop=1;jettySize=auto;html=1;labelBackgroundColor=none;fontColor=#000000;" parent="F4W6GdJIVFa8Bw8fIA7z-478" source="F4W6GdJIVFa8Bw8fIA7z-485" target="F4W6GdJIVFa8Bw8fIA7z-510" edge="1">
          <mxGeometry relative="1" as="geometry" />
        </mxCell>
        <mxCell id="F4W6GdJIVFa8Bw8fIA7z-510" value="&lt;div style=&quot;font-family: Consolas, &amp;quot;Courier New&amp;quot;, monospace; font-size: 14px; line-height: 19px;&quot;&gt;&lt;div style=&quot;line-height: 19px;&quot;&gt;&lt;div style=&quot;line-height: 19px;&quot;&gt;&lt;div style=&quot;line-height: 19px;&quot;&gt;NativeIntegerT&lt;/div&gt;&lt;/div&gt;&lt;/div&gt;&lt;/div&gt;" style="swimlane;fontStyle=1;align=center;verticalAlign=top;childLayout=stackLayout;horizontal=1;startSize=26;horizontalStack=0;resizeParent=1;resizeParentMax=0;resizeLast=0;collapsible=1;marginBottom=0;whiteSpace=wrap;html=1;labelBackgroundColor=none;fontColor=#000000;" parent="F4W6GdJIVFa8Bw8fIA7z-478" vertex="1">
          <mxGeometry x="755" y="385" width="290" height="110" as="geometry" />
        </mxCell>
        <mxCell id="F4W6GdJIVFa8Bw8fIA7z-511" value="&lt;div style=&quot;font-family: Consolas, &amp;quot;Courier New&amp;quot;, monospace; font-size: 14px; line-height: 19px;&quot;&gt;&lt;div style=&quot;line-height: 19px;&quot;&gt;&lt;div style=&quot;line-height: 19px;&quot;&gt;&lt;div&gt;Main class for big integers represented as an array of native&lt;/div&gt;&lt;div&gt;&lt;span style=&quot;&quot;&gt;&amp;nbsp;* (primitive) unsigned integers&lt;/span&gt;&lt;/div&gt;&lt;/div&gt;&lt;/div&gt;&lt;/div&gt;" style="text;strokeColor=none;fillColor=none;align=left;verticalAlign=top;spacingLeft=4;spacingRight=4;overflow=hidden;rotatable=0;points=[[0,0.5],[1,0.5]];portConstraint=eastwest;whiteSpace=wrap;html=1;labelBackgroundColor=none;fontColor=#000000;" parent="F4W6GdJIVFa8Bw8fIA7z-510" vertex="1">
          <mxGeometry y="26" width="290" height="84" as="geometry" />
        </mxCell>
        <mxCell id="F4W6GdJIVFa8Bw8fIA7z-562" style="edgeStyle=orthogonalEdgeStyle;rounded=0;orthogonalLoop=1;jettySize=auto;html=1;entryX=1.02;entryY=0.366;entryDx=0;entryDy=0;entryPerimeter=0;dashed=1;labelBackgroundColor=none;fontColor=#000000;" parent="F4W6GdJIVFa8Bw8fIA7z-478" source="F4W6GdJIVFa8Bw8fIA7z-520" target="F4W6GdJIVFa8Bw8fIA7z-511" edge="1">
          <mxGeometry relative="1" as="geometry" />
        </mxCell>
        <mxCell id="F4W6GdJIVFa8Bw8fIA7z-520" value="&lt;div style=&quot;font-family: Consolas, &amp;quot;Courier New&amp;quot;, monospace; font-size: 14px; line-height: 19px;&quot;&gt;&lt;div style=&quot;line-height: 19px;&quot;&gt;DiscreteUniformGeneratorImpl&lt;br&gt;&lt;/div&gt;&lt;/div&gt;" style="swimlane;fontStyle=1;align=center;verticalAlign=top;childLayout=stackLayout;horizontal=1;startSize=26;horizontalStack=0;resizeParent=1;resizeParentMax=0;resizeLast=0;collapsible=1;marginBottom=0;whiteSpace=wrap;html=1;labelBorderColor=none;labelBackgroundColor=none;fillColor=none;fontColor=#000000;strokeColor=#666666;" parent="F4W6GdJIVFa8Bw8fIA7z-478" vertex="1">
          <mxGeometry x="1240" y="370" width="270" height="140" as="geometry" />
        </mxCell>
        <mxCell id="F4W6GdJIVFa8Bw8fIA7z-521" value="&lt;div style=&quot;font-family: Consolas, &amp;quot;Courier New&amp;quot;, monospace; font-size: 14px; line-height: 19px;&quot;&gt;&lt;div style=&quot;line-height: 19px;&quot;&gt;&lt;div style=&quot;line-height: 19px;&quot;&gt;&lt;span style=&quot;&quot;&gt;+method:&lt;/span&gt;SetModulus&lt;/div&gt;&lt;div style=&quot;line-height: 19px;&quot;&gt;&lt;div&gt;&lt;div style=&quot;border-color: var(--border-color); line-height: 19px;&quot;&gt;+method:GenerateVector&lt;/div&gt;&lt;div style=&quot;border-color: var(--border-color); line-height: 19px;&quot;&gt;&lt;div style=&quot;border-color: var(--border-color);&quot;&gt;&lt;br style=&quot;border-color: var(--border-color);&quot;&gt;&lt;/div&gt;&lt;/div&gt;&lt;/div&gt;&lt;/div&gt;&lt;/div&gt;&lt;/div&gt;" style="text;strokeColor=#666666;fillColor=none;align=left;verticalAlign=top;spacingLeft=4;spacingRight=4;overflow=hidden;rotatable=0;points=[[0,0.5],[1,0.5]];portConstraint=eastwest;whiteSpace=wrap;html=1;fontColor=#000000;labelBackgroundColor=none;" parent="F4W6GdJIVFa8Bw8fIA7z-520" vertex="1">
          <mxGeometry y="26" width="270" height="64" as="geometry" />
        </mxCell>
        <mxCell id="F4W6GdJIVFa8Bw8fIA7z-522" value="&lt;font style=&quot;font-size: 14px;&quot; face=&quot;Consolas, Courier New, monospace&quot;&gt;&amp;nbsp;The class for Discrete Uniform Distribution generator over Zq&lt;/font&gt;" style="text;strokeColor=none;fillColor=none;align=left;verticalAlign=top;spacingLeft=4;spacingRight=4;overflow=hidden;rotatable=0;points=[[0,0.5],[1,0.5]];portConstraint=eastwest;whiteSpace=wrap;html=1;labelBackgroundColor=none;fontColor=#000000;" parent="F4W6GdJIVFa8Bw8fIA7z-520" vertex="1">
          <mxGeometry y="90" width="270" height="50" as="geometry" />
        </mxCell>
        <mxCell id="F4W6GdJIVFa8Bw8fIA7z-556" value="&lt;font style=&quot;font-size: 14px;&quot;&gt;Dist Object:&lt;font style=&quot;font-size: 14px;&quot;&gt;dug&lt;/font&gt;&lt;/font&gt;" style="text;html=1;align=center;verticalAlign=middle;resizable=0;points=[];autosize=1;strokeColor=none;fillColor=none;labelBackgroundColor=none;fontColor=#000000;" parent="F4W6GdJIVFa8Bw8fIA7z-478" vertex="1">
          <mxGeometry x="1080" y="410" width="120" height="30" as="geometry" />
        </mxCell>
        <mxCell id="F4W6GdJIVFa8Bw8fIA7z-558" value="&lt;font style=&quot;font-size: 14px;&quot;&gt;Vector Object:&lt;font&gt;x&lt;/font&gt;&lt;/font&gt;" style="text;html=1;align=center;verticalAlign=middle;resizable=0;points=[];autosize=1;strokeColor=none;fillColor=none;labelBackgroundColor=none;fontColor=#000000;" parent="F4W6GdJIVFa8Bw8fIA7z-478" vertex="1">
          <mxGeometry x="570" y="410" width="120" height="30" as="geometry" />
        </mxCell>
        <mxCell id="F4W6GdJIVFa8Bw8fIA7z-551" value="&lt;div style=&quot;font-family: Consolas, &amp;quot;Courier New&amp;quot;, monospace; font-size: 14px; line-height: 19px;&quot;&gt;&lt;div style=&quot;line-height: 19px;&quot;&gt;NumberTheoreticTransformNtl&lt;br&gt;&lt;/div&gt;&lt;/div&gt;" style="swimlane;fontStyle=1;align=center;verticalAlign=top;childLayout=stackLayout;horizontal=1;startSize=26;horizontalStack=0;resizeParent=1;resizeParentMax=0;resizeLast=0;collapsible=1;marginBottom=0;whiteSpace=wrap;html=1;labelBorderColor=none;labelBackgroundColor=default;fillColor=none;fontColor=#333333;strokeColor=#666666;" parent="F4W6GdJIVFa8Bw8fIA7z-478" vertex="1">
          <mxGeometry x="20" y="280" width="390" height="160" as="geometry" />
        </mxCell>
        <mxCell id="F4W6GdJIVFa8Bw8fIA7z-552" value="&lt;div style=&quot;font-family: Consolas, &amp;quot;Courier New&amp;quot;, monospace; font-size: 14px; line-height: 19px;&quot;&gt;&lt;div style=&quot;line-height: 19px;&quot;&gt;&lt;div style=&quot;line-height: 19px;&quot;&gt;+method:ForwardTransformToBitReverse&lt;/div&gt;&lt;div style=&quot;line-height: 19px;&quot;&gt;&lt;div&gt;&lt;div style=&quot;border-color: var(--border-color); line-height: 19px;&quot;&gt;&lt;div style=&quot;border-color: var(--border-color);&quot;&gt;+method:InverseTransformFromBitReverse&lt;/div&gt;&lt;div style=&quot;border-color: var(--border-color);&quot;&gt;+method:ForwardTransformToBitReverseInPlace&lt;/div&gt;&lt;div style=&quot;border-color: var(--border-color);&quot;&gt;+method:InverseTransformFromBitReverseInPlace&lt;/div&gt;&lt;/div&gt;&lt;/div&gt;&lt;/div&gt;&lt;/div&gt;&lt;/div&gt;" style="text;strokeColor=#666666;fillColor=none;align=left;verticalAlign=top;spacingLeft=4;spacingRight=4;overflow=hidden;rotatable=0;points=[[0,0.5],[1,0.5]];portConstraint=eastwest;whiteSpace=wrap;html=1;fontColor=#333333;" parent="F4W6GdJIVFa8Bw8fIA7z-551" vertex="1">
          <mxGeometry y="26" width="390" height="94" as="geometry" />
        </mxCell>
        <mxCell id="F4W6GdJIVFa8Bw8fIA7z-553" value="&lt;div style=&quot;font-family: Consolas, &amp;quot;Courier New&amp;quot;, monospace; font-size: 14px; line-height: 19px;&quot;&gt;Number Theoretic Transform implementation class&lt;br&gt;&lt;/div&gt;" style="text;strokeColor=none;fillColor=none;align=left;verticalAlign=top;spacingLeft=4;spacingRight=4;overflow=hidden;rotatable=0;points=[[0,0.5],[1,0.5]];portConstraint=eastwest;whiteSpace=wrap;html=1;" parent="F4W6GdJIVFa8Bw8fIA7z-551" vertex="1">
          <mxGeometry y="120" width="390" height="40" as="geometry" />
        </mxCell>
        <mxCell id="F4W6GdJIVFa8Bw8fIA7z-557" style="edgeStyle=orthogonalEdgeStyle;rounded=0;orthogonalLoop=1;jettySize=auto;html=1;exitX=0;exitY=0.5;exitDx=0;exitDy=0;entryX=1;entryY=0.5;entryDx=0;entryDy=0;dashed=1;labelBackgroundColor=none;fontColor=#000000;" parent="F4W6GdJIVFa8Bw8fIA7z-478" source="F4W6GdJIVFa8Bw8fIA7z-511" target="F4W6GdJIVFa8Bw8fIA7z-552" edge="1">
          <mxGeometry relative="1" as="geometry">
            <Array as="points">
              <mxPoint x="530" y="448" />
              <mxPoint x="530" y="353" />
            </Array>
          </mxGeometry>
        </mxCell>
        <mxCell id="F4W6GdJIVFa8Bw8fIA7z-559" style="edgeStyle=orthogonalEdgeStyle;rounded=0;orthogonalLoop=1;jettySize=auto;html=1;exitX=0;exitY=0.5;exitDx=0;exitDy=0;entryX=1;entryY=0.5;entryDx=0;entryDy=0;dashed=1;labelBackgroundColor=none;fontColor=#000000;" parent="F4W6GdJIVFa8Bw8fIA7z-478" source="F4W6GdJIVFa8Bw8fIA7z-528" target="F4W6GdJIVFa8Bw8fIA7z-552" edge="1">
          <mxGeometry relative="1" as="geometry">
            <Array as="points">
              <mxPoint x="530" y="273" />
              <mxPoint x="530" y="353" />
            </Array>
          </mxGeometry>
        </mxCell>
        <mxCell id="F4W6GdJIVFa8Bw8fIA7z-668" value="" style="edgeStyle=orthogonalEdgeStyle;rounded=0;orthogonalLoop=1;jettySize=auto;html=1;fontColor=#000000;labelBackgroundColor=default;" parent="1" source="F4W6GdJIVFa8Bw8fIA7z-669" target="F4W6GdJIVFa8Bw8fIA7z-672" edge="1">
          <mxGeometry relative="1" as="geometry" />
        </mxCell>
        <mxCell id="F4W6GdJIVFa8Bw8fIA7z-669" value="&lt;div style=&quot;font-family: Consolas, &amp;quot;Courier New&amp;quot;, monospace; font-size: 14px; line-height: 19px;&quot;&gt;&lt;div style=&quot;line-height: 19px;&quot;&gt;&lt;div style=&quot;line-height: 19px;&quot;&gt;&lt;div style=&quot;line-height: 19px;&quot;&gt;&lt;div style=&quot;line-height: 19px;&quot;&gt;&lt;div style=&quot;line-height: 19px;&quot;&gt;CryptoObject&lt;/div&gt;&lt;/div&gt;&lt;/div&gt;&lt;/div&gt;&lt;/div&gt;&lt;/div&gt;" style="swimlane;fontStyle=1;align=center;verticalAlign=top;childLayout=stackLayout;horizontal=1;startSize=26;horizontalStack=0;resizeParent=1;resizeParentMax=0;resizeLast=0;collapsible=1;marginBottom=0;whiteSpace=wrap;html=1;fontColor=#000000;labelBackgroundColor=default;" parent="1" vertex="1">
          <mxGeometry x="1660" y="2092" width="290" height="100" as="geometry" />
        </mxCell>
        <mxCell id="F4W6GdJIVFa8Bw8fIA7z-670" value="&lt;div style=&quot;font-family: Consolas, &amp;quot;Courier New&amp;quot;, monospace; font-size: 14px; line-height: 19px;&quot;&gt;&lt;div style=&quot;line-height: 19px;&quot;&gt;&lt;div style=&quot;line-height: 19px;&quot;&gt;&lt;div style=&quot;line-height: 19px;&quot;&gt;A class to aid in referring to the crypto context that an object belongs to&lt;/div&gt;&lt;/div&gt;&lt;/div&gt;&lt;/div&gt;" style="text;strokeColor=none;fillColor=none;align=left;verticalAlign=top;spacingLeft=4;spacingRight=4;overflow=hidden;rotatable=0;points=[[0,0.5],[1,0.5]];portConstraint=eastwest;whiteSpace=wrap;html=1;fontColor=#000000;labelBackgroundColor=default;" parent="F4W6GdJIVFa8Bw8fIA7z-669" vertex="1">
          <mxGeometry y="26" width="290" height="74" as="geometry" />
        </mxCell>
        <mxCell id="F4W6GdJIVFa8Bw8fIA7z-672" value="&lt;div style=&quot;font-family: Consolas, &amp;quot;Courier New&amp;quot;, monospace; font-size: 14px; line-height: 19px;&quot;&gt;&lt;div style=&quot;line-height: 19px;&quot;&gt;&lt;div style=&quot;line-height: 19px;&quot;&gt;&lt;div style=&quot;line-height: 19px;&quot;&gt;&lt;div style=&quot;line-height: 19px;&quot;&gt;&lt;div style=&quot;line-height: 19px;&quot;&gt;CiphertextImpl&lt;/div&gt;&lt;/div&gt;&lt;/div&gt;&lt;/div&gt;&lt;/div&gt;&lt;/div&gt;" style="swimlane;fontStyle=1;align=center;verticalAlign=top;childLayout=stackLayout;horizontal=1;startSize=26;horizontalStack=0;resizeParent=1;resizeParentMax=0;resizeLast=0;collapsible=1;marginBottom=0;whiteSpace=wrap;html=1;fontColor=#000000;labelBackgroundColor=default;" parent="1" vertex="1">
          <mxGeometry x="1695" y="1932" width="220" height="116" as="geometry" />
        </mxCell>
        <mxCell id="F4W6GdJIVFa8Bw8fIA7z-673" value="&lt;div style=&quot;font-family: Consolas, &amp;quot;Courier New&amp;quot;, monospace; font-size: 14px; line-height: 19px;&quot;&gt;&lt;div style=&quot;line-height: 19px;&quot;&gt;&lt;div style=&quot;line-height: 19px;&quot;&gt;&lt;div&gt;The CiphertextImpl object is used to contain encrypted text in the OpenFHE&amp;nbsp;&lt;span style=&quot;&quot;&gt;library&lt;/span&gt;&lt;/div&gt;&lt;/div&gt;&lt;/div&gt;&lt;/div&gt;" style="text;strokeColor=none;fillColor=none;align=left;verticalAlign=top;spacingLeft=4;spacingRight=4;overflow=hidden;rotatable=0;points=[[0,0.5],[1,0.5]];portConstraint=eastwest;whiteSpace=wrap;html=1;fontColor=#000000;labelBackgroundColor=default;" parent="F4W6GdJIVFa8Bw8fIA7z-672" vertex="1">
          <mxGeometry y="26" width="220" height="90" as="geometry" />
        </mxCell>
        <mxCell id="F4W6GdJIVFa8Bw8fIA7z-676" value="&lt;div style=&quot;font-family: Consolas, &amp;quot;Courier New&amp;quot;, monospace; font-size: 14px; line-height: 19px;&quot;&gt;&lt;b&gt;&lt;font color=&quot;#67ab9f&quot;&gt;Ciphertext&amp;lt;&lt;span style=&quot;&quot;&gt;DCRTPoly&lt;/span&gt;&lt;span style=&quot;&quot;&gt;&amp;gt;&lt;/span&gt;&lt;/font&gt;&lt;/b&gt;&lt;/div&gt;" style="rounded=1;whiteSpace=wrap;html=1;labelBackgroundColor=default;fontColor=#000000;" parent="1" vertex="1">
          <mxGeometry x="1430" y="1973" width="180" height="57" as="geometry" />
        </mxCell>
        <mxCell id="F4W6GdJIVFa8Bw8fIA7z-677" style="edgeStyle=orthogonalEdgeStyle;rounded=0;orthogonalLoop=1;jettySize=auto;html=1;exitX=0;exitY=0.5;exitDx=0;exitDy=0;entryX=1;entryY=0.5;entryDx=0;entryDy=0;labelBackgroundColor=default;fontColor=#000000;" parent="1" source="F4W6GdJIVFa8Bw8fIA7z-673" target="F4W6GdJIVFa8Bw8fIA7z-676" edge="1">
          <mxGeometry relative="1" as="geometry" />
        </mxCell>
        <mxCell id="cAWPv7_ABnVJ44YiWaZB-10" value="" style="edgeStyle=orthogonalEdgeStyle;rounded=0;orthogonalLoop=1;jettySize=auto;html=1;" edge="1" parent="1" source="cAWPv7_ABnVJ44YiWaZB-6" target="cAWPv7_ABnVJ44YiWaZB-8">
          <mxGeometry relative="1" as="geometry" />
        </mxCell>
        <mxCell id="cAWPv7_ABnVJ44YiWaZB-11" style="edgeStyle=orthogonalEdgeStyle;rounded=0;orthogonalLoop=1;jettySize=auto;html=1;exitX=0.5;exitY=0;exitDx=0;exitDy=0;" edge="1" parent="1" source="cAWPv7_ABnVJ44YiWaZB-6">
          <mxGeometry relative="1" as="geometry">
            <mxPoint x="2990" y="-330" as="targetPoint" />
          </mxGeometry>
        </mxCell>
        <mxCell id="cAWPv7_ABnVJ44YiWaZB-6" value="&lt;div style=&quot;font-family: Consolas, &amp;quot;Courier New&amp;quot;, monospace; font-size: 14px; line-height: 19px;&quot;&gt;Serializable&lt;/div&gt;" style="swimlane;fontStyle=1;align=center;verticalAlign=top;childLayout=stackLayout;horizontal=1;startSize=26;horizontalStack=0;resizeParent=1;resizeParentMax=0;resizeLast=0;collapsible=1;marginBottom=0;whiteSpace=wrap;html=1;labelBorderColor=none;labelBackgroundColor=default;fillColor=none;fontColor=#333333;strokeColor=#666666;" vertex="1" parent="1">
          <mxGeometry x="2580" y="-230" width="190" height="70" as="geometry" />
        </mxCell>
        <mxCell id="cAWPv7_ABnVJ44YiWaZB-7" value="&lt;div style=&quot;font-family: Consolas, &amp;quot;Courier New&amp;quot;, monospace; font-size: 14px; line-height: 19px;&quot;&gt;Base class for OpenFHE serialization&lt;/div&gt;" style="text;strokeColor=#666666;fillColor=none;align=left;verticalAlign=top;spacingLeft=4;spacingRight=4;overflow=hidden;rotatable=0;points=[[0,0.5],[1,0.5]];portConstraint=eastwest;whiteSpace=wrap;html=1;fontColor=#333333;" vertex="1" parent="cAWPv7_ABnVJ44YiWaZB-6">
          <mxGeometry y="26" width="190" height="44" as="geometry" />
        </mxCell>
        <mxCell id="cAWPv7_ABnVJ44YiWaZB-8" value="&lt;div style=&quot;font-family: Consolas, &amp;quot;Courier New&amp;quot;, monospace; font-size: 14px; line-height: 19px;&quot;&gt;&lt;div style=&quot;color: rgb(212, 212, 212); background-color: rgb(30, 30, 30); font-weight: normal; line-height: 19px;&quot;&gt;LWECryptoParams&lt;/div&gt;&lt;/div&gt;" style="swimlane;fontStyle=1;align=center;verticalAlign=top;childLayout=stackLayout;horizontal=1;startSize=26;horizontalStack=0;resizeParent=1;resizeParentMax=0;resizeLast=0;collapsible=1;marginBottom=0;whiteSpace=wrap;html=1;labelBorderColor=none;labelBackgroundColor=default;fillColor=none;fontColor=#333333;strokeColor=#666666;" vertex="1" parent="1">
          <mxGeometry x="2580" y="-380" width="190" height="70" as="geometry" />
        </mxCell>
        <mxCell id="cAWPv7_ABnVJ44YiWaZB-9" value="&lt;div style=&quot;font-family: Consolas, &amp;quot;Courier New&amp;quot;, monospace; font-size: 14px; line-height: 19px;&quot;&gt;&lt;div style=&quot;color: rgb(212, 212, 212); background-color: rgb(30, 30, 30); line-height: 19px;&quot;&gt;Class that stores all parameters for the LWE scheme&lt;/div&gt;&lt;/div&gt;" style="text;strokeColor=#666666;fillColor=none;align=left;verticalAlign=top;spacingLeft=4;spacingRight=4;overflow=hidden;rotatable=0;points=[[0,0.5],[1,0.5]];portConstraint=eastwest;whiteSpace=wrap;html=1;fontColor=#333333;" vertex="1" parent="cAWPv7_ABnVJ44YiWaZB-8">
          <mxGeometry y="26" width="190" height="44" as="geometry" />
        </mxCell>
        <mxCell id="cAWPv7_ABnVJ44YiWaZB-12" value="&lt;div style=&quot;font-family: Consolas, &amp;quot;Courier New&amp;quot;, monospace; font-size: 14px; line-height: 19px;&quot;&gt;&lt;div style=&quot;color: rgb(212, 212, 212); background-color: rgb(30, 30, 30); font-weight: normal; line-height: 19px;&quot;&gt;LWECryptoParams&lt;/div&gt;&lt;/div&gt;" style="swimlane;fontStyle=1;align=center;verticalAlign=top;childLayout=stackLayout;horizontal=1;startSize=26;horizontalStack=0;resizeParent=1;resizeParentMax=0;resizeLast=0;collapsible=1;marginBottom=0;whiteSpace=wrap;html=1;labelBorderColor=none;labelBackgroundColor=default;fillColor=none;fontColor=#333333;strokeColor=#666666;" vertex="1" parent="1">
          <mxGeometry x="2895" y="-400" width="190" height="70" as="geometry" />
        </mxCell>
        <mxCell id="cAWPv7_ABnVJ44YiWaZB-13" value="&lt;div style=&quot;font-family: Consolas, &amp;quot;Courier New&amp;quot;, monospace; font-size: 14px; line-height: 19px;&quot;&gt;&lt;div style=&quot;color: rgb(212, 212, 212); background-color: rgb(30, 30, 30); line-height: 19px;&quot;&gt;Class that stores all parameters for the LWE scheme&lt;/div&gt;&lt;/div&gt;" style="text;strokeColor=#666666;fillColor=none;align=left;verticalAlign=top;spacingLeft=4;spacingRight=4;overflow=hidden;rotatable=0;points=[[0,0.5],[1,0.5]];portConstraint=eastwest;whiteSpace=wrap;html=1;fontColor=#333333;" vertex="1" parent="cAWPv7_ABnVJ44YiWaZB-12">
          <mxGeometry y="26" width="190" height="44" as="geometry" />
        </mxCell>
        <mxCell id="cAWPv7_ABnVJ44YiWaZB-14" value="&lt;div style=&quot;font-family: Consolas, &amp;quot;Courier New&amp;quot;, monospace; line-height: 19px;&quot;&gt;&lt;font style=&quot;font-size: 17px;&quot;&gt;s&lt;/font&gt;&lt;/div&gt;" style="swimlane;html=1;startSize=40;horizontal=1;containerType=tree;glass=0;align=center;verticalAlign=middle;" vertex="1" parent="1">
          <mxGeometry x="490" y="3910" width="1730" height="690" as="geometry">
            <mxRectangle x="420" y="3330" width="190" height="40" as="alternateBounds" />
          </mxGeometry>
        </mxCell>
        <mxCell id="cAWPv7_ABnVJ44YiWaZB-23" value="&lt;div style=&quot;font-family: Consolas, &amp;quot;Courier New&amp;quot;, monospace; font-size: 14px; line-height: 19px;&quot;&gt;&lt;div style=&quot;line-height: 19px;&quot;&gt;&lt;div style=&quot;line-height: 19px;&quot;&gt;&lt;div style=&quot;line-height: 19px;&quot;&gt;KeySwitchBase&amp;lt;secret key type&amp;gt;&lt;/div&gt;&lt;/div&gt;&lt;/div&gt;&lt;/div&gt;" style="swimlane;fontStyle=1;align=center;verticalAlign=top;childLayout=stackLayout;horizontal=1;startSize=26;horizontalStack=0;resizeParent=1;resizeParentMax=0;resizeLast=0;collapsible=1;marginBottom=0;whiteSpace=wrap;html=1;labelBackgroundColor=none;fontColor=#000000;" vertex="1" parent="cAWPv7_ABnVJ44YiWaZB-14">
          <mxGeometry x="545" y="560" width="380" height="90" as="geometry" />
        </mxCell>
        <mxCell id="cAWPv7_ABnVJ44YiWaZB-24" value="&lt;div style=&quot;font-family: Consolas, &amp;quot;Courier New&amp;quot;, monospace; font-size: 14px; line-height: 19px;&quot;&gt;&lt;div style=&quot;line-height: 19px;&quot;&gt;&lt;div style=&quot;color: rgb(212, 212, 212); background-color: rgb(30, 30, 30); line-height: 19px;&quot;&gt;Abstract class &lt;span style=&quot;color: #c8c8c8;&quot;&gt;for&lt;/span&gt; &lt;span style=&quot;color: #c8c8c8;&quot;&gt;LBC&lt;/span&gt; &lt;span style=&quot;color: #4ec9b0;&quot;&gt;keyswitching&lt;/span&gt;&lt;/div&gt;&lt;/div&gt;&lt;/div&gt;" style="text;strokeColor=none;fillColor=none;align=left;verticalAlign=top;spacingLeft=4;spacingRight=4;overflow=hidden;rotatable=0;points=[[0,0.5],[1,0.5]];portConstraint=eastwest;whiteSpace=wrap;html=1;labelBackgroundColor=none;fontColor=#000000;" vertex="1" parent="cAWPv7_ABnVJ44YiWaZB-23">
          <mxGeometry y="26" width="380" height="64" as="geometry" />
        </mxCell>
        <mxCell id="cAWPv7_ABnVJ44YiWaZB-25" value="" style="edgeStyle=orthogonalEdgeStyle;rounded=0;orthogonalLoop=1;jettySize=auto;html=1;labelBackgroundColor=none;fontColor=#000000;" edge="1" parent="cAWPv7_ABnVJ44YiWaZB-14" source="cAWPv7_ABnVJ44YiWaZB-23" target="cAWPv7_ABnVJ44YiWaZB-26">
          <mxGeometry relative="1" as="geometry" />
        </mxCell>
        <mxCell id="cAWPv7_ABnVJ44YiWaZB-46" style="edgeStyle=orthogonalEdgeStyle;rounded=0;orthogonalLoop=1;jettySize=auto;html=1;exitX=0.5;exitY=0;exitDx=0;exitDy=0;entryX=0.5;entryY=1;entryDx=0;entryDy=0;" edge="1" parent="cAWPv7_ABnVJ44YiWaZB-14" source="cAWPv7_ABnVJ44YiWaZB-26" target="cAWPv7_ABnVJ44YiWaZB-44">
          <mxGeometry relative="1" as="geometry" />
        </mxCell>
        <mxCell id="cAWPv7_ABnVJ44YiWaZB-26" value="&lt;div style=&quot;font-family: Consolas, &amp;quot;Courier New&amp;quot;, monospace; font-size: 14px; line-height: 19px;&quot;&gt;&lt;div style=&quot;line-height: 19px;&quot;&gt;&lt;div style=&quot;line-height: 19px;&quot;&gt;&lt;div style=&quot;line-height: 19px;&quot;&gt;&lt;div style=&quot;color: rgb(212, 212, 212); background-color: rgb(30, 30, 30); font-weight: normal; line-height: 19px;&quot;&gt;&lt;div style=&quot;line-height: 19px;&quot;&gt;KeySwitchRNS&amp;lt;&lt;span style=&quot;color: rgb(78, 201, 176);&quot;&gt;DCRTPoly&lt;/span&gt;&lt;span style=&quot;&quot;&gt;&amp;gt;&lt;/span&gt;&lt;/div&gt;&lt;/div&gt;&lt;/div&gt;&lt;/div&gt;&lt;/div&gt;&lt;/div&gt;" style="swimlane;fontStyle=1;align=center;verticalAlign=top;childLayout=stackLayout;horizontal=1;startSize=26;horizontalStack=0;resizeParent=1;resizeParentMax=0;resizeLast=0;collapsible=1;marginBottom=0;whiteSpace=wrap;html=1;labelBackgroundColor=none;fontColor=#000000;" vertex="1" parent="cAWPv7_ABnVJ44YiWaZB-14">
          <mxGeometry x="590" y="410" width="290" height="110" as="geometry" />
        </mxCell>
        <mxCell id="cAWPv7_ABnVJ44YiWaZB-27" value="&lt;div style=&quot;font-family: Consolas, &amp;quot;Courier New&amp;quot;, monospace; font-size: 14px; line-height: 19px;&quot;&gt;&lt;div style=&quot;line-height: 19px;&quot;&gt;&lt;div style=&quot;line-height: 19px;&quot;&gt;&lt;div style=&quot;color: rgb(212, 212, 212); background-color: rgb(30, 30, 30); line-height: 19px;&quot;&gt;A child of KeySwitchBase for use with RNS keyswitching&lt;/div&gt;&lt;/div&gt;&lt;/div&gt;&lt;/div&gt;" style="text;strokeColor=none;fillColor=none;align=left;verticalAlign=top;spacingLeft=4;spacingRight=4;overflow=hidden;rotatable=0;points=[[0,0.5],[1,0.5]];portConstraint=eastwest;whiteSpace=wrap;html=1;labelBackgroundColor=none;fontColor=#000000;" vertex="1" parent="cAWPv7_ABnVJ44YiWaZB-26">
          <mxGeometry y="26" width="290" height="84" as="geometry" />
        </mxCell>
        <mxCell id="cAWPv7_ABnVJ44YiWaZB-39" value="" style="edgeStyle=orthogonalEdgeStyle;rounded=0;orthogonalLoop=1;jettySize=auto;html=1;labelBackgroundColor=none;fontColor=#000000;" edge="1" target="cAWPv7_ABnVJ44YiWaZB-40" source="cAWPv7_ABnVJ44YiWaZB-26" parent="cAWPv7_ABnVJ44YiWaZB-14">
          <mxGeometry relative="1" as="geometry">
            <mxPoint x="1350" y="4552" as="sourcePoint" />
          </mxGeometry>
        </mxCell>
        <mxCell id="cAWPv7_ABnVJ44YiWaZB-40" value="&lt;div style=&quot;font-family: Consolas, &amp;quot;Courier New&amp;quot;, monospace; font-size: 14px; line-height: 19px;&quot;&gt;&lt;div style=&quot;line-height: 19px;&quot;&gt;&lt;div style=&quot;line-height: 19px;&quot;&gt;&lt;div style=&quot;line-height: 19px;&quot;&gt;&lt;div style=&quot;color: rgb(212, 212, 212); background-color: rgb(30, 30, 30); font-weight: normal; line-height: 19px;&quot;&gt;&lt;div style=&quot;line-height: 19px;&quot;&gt;&lt;div style=&quot;line-height: 19px;&quot;&gt;KeySwitchHYBRID&lt;/div&gt;&lt;/div&gt;&lt;/div&gt;&lt;/div&gt;&lt;/div&gt;&lt;/div&gt;&lt;/div&gt;" style="swimlane;fontStyle=1;align=center;verticalAlign=top;childLayout=stackLayout;horizontal=1;startSize=26;horizontalStack=0;resizeParent=1;resizeParentMax=0;resizeLast=0;collapsible=1;marginBottom=0;whiteSpace=wrap;html=1;labelBackgroundColor=none;fontColor=#000000;" vertex="1" parent="cAWPv7_ABnVJ44YiWaZB-14">
          <mxGeometry x="840" y="150" width="290" height="110" as="geometry" />
        </mxCell>
        <mxCell id="cAWPv7_ABnVJ44YiWaZB-41" value="&lt;div style=&quot;font-family: Consolas, &amp;quot;Courier New&amp;quot;, monospace; font-size: 14px; line-height: 19px;&quot;&gt;&lt;div style=&quot;line-height: 19px;&quot;&gt;&lt;div style=&quot;line-height: 19px;&quot;&gt;&lt;div style=&quot;color: rgb(212, 212, 212); background-color: rgb(30, 30, 30); line-height: 19px;&quot;&gt;&lt;div style=&quot;line-height: 19px;&quot;&gt;Hybrid Keyswitching method&lt;/div&gt;&lt;div style=&quot;line-height: 19px;&quot;&gt;&lt;br&gt;&lt;/div&gt;&lt;div style=&quot;line-height: 19px;&quot;&gt;&lt;div style=&quot;line-height: 19px;&quot;&gt;https://eprint.iacr.org/2012/099.pdf&lt;/div&gt;&lt;/div&gt;&lt;/div&gt;&lt;/div&gt;&lt;/div&gt;&lt;/div&gt;" style="text;strokeColor=none;fillColor=none;align=left;verticalAlign=top;spacingLeft=4;spacingRight=4;overflow=hidden;rotatable=0;points=[[0,0.5],[1,0.5]];portConstraint=eastwest;whiteSpace=wrap;html=1;labelBackgroundColor=none;fontColor=#000000;" vertex="1" parent="cAWPv7_ABnVJ44YiWaZB-40">
          <mxGeometry y="26" width="290" height="84" as="geometry" />
        </mxCell>
        <mxCell id="cAWPv7_ABnVJ44YiWaZB-42" value="&lt;div style=&quot;color: rgb(212, 212, 212); background-color: rgb(30, 30, 30); font-family: Consolas, &amp;quot;Courier New&amp;quot;, monospace; font-size: 14px; line-height: 19px;&quot;&gt;Uses a mix of BV and GHS keyswitching for efficient key-switching&lt;/div&gt;" style="text;html=1;strokeColor=none;fillColor=none;align=center;verticalAlign=middle;whiteSpace=wrap;rounded=0;" vertex="1" parent="cAWPv7_ABnVJ44YiWaZB-14">
          <mxGeometry x="900" y="350" width="380" height="30" as="geometry" />
        </mxCell>
        <mxCell id="cAWPv7_ABnVJ44YiWaZB-44" value="&lt;div style=&quot;font-family: Consolas, &amp;quot;Courier New&amp;quot;, monospace; font-size: 14px; line-height: 19px;&quot;&gt;&lt;div style=&quot;line-height: 19px;&quot;&gt;&lt;div style=&quot;line-height: 19px;&quot;&gt;&lt;div style=&quot;line-height: 19px;&quot;&gt;&lt;div style=&quot;color: rgb(212, 212, 212); background-color: rgb(30, 30, 30); font-weight: normal; line-height: 19px;&quot;&gt;&lt;div style=&quot;line-height: 19px;&quot;&gt;&lt;div style=&quot;line-height: 19px;&quot;&gt;&lt;div style=&quot;line-height: 19px;&quot;&gt;KeySwitchBV&lt;/div&gt;&lt;/div&gt;&lt;/div&gt;&lt;/div&gt;&lt;/div&gt;&lt;/div&gt;&lt;/div&gt;&lt;/div&gt;" style="swimlane;fontStyle=1;align=center;verticalAlign=top;childLayout=stackLayout;horizontal=1;startSize=26;horizontalStack=0;resizeParent=1;resizeParentMax=0;resizeLast=0;collapsible=1;marginBottom=0;whiteSpace=wrap;html=1;labelBackgroundColor=none;fontColor=#000000;" vertex="1" parent="cAWPv7_ABnVJ44YiWaZB-14">
          <mxGeometry x="190" y="50" width="540" height="210" as="geometry" />
        </mxCell>
        <mxCell id="cAWPv7_ABnVJ44YiWaZB-45" value="&lt;div style=&quot;color: rgb(212, 212, 212); background-color: rgb(30, 30, 30); font-family: Consolas, &amp;quot;Courier New&amp;quot;, monospace; font-size: 14px; line-height: 19px;&quot;&gt;&lt;div&gt;Implements BV key switching method from [Fully Homomorphic Encryption from&lt;/div&gt;&lt;div&gt;&lt;span style=&quot;color: #6a9955;&quot;&gt;&amp;nbsp; &amp;nbsp; Ring-LWE and Security for Key Dependent Messages (BVScheme)](&lt;/span&gt;&lt;/div&gt;&lt;div&gt;&lt;span style=&quot;color: #6a9955;&quot;&gt;&amp;nbsp; &amp;nbsp; https://www.wisdom.weizmann.ac.il/~zvikab/localpapers/IdealHom.pdf&lt;/span&gt;&lt;/div&gt;&lt;div&gt;&lt;span style=&quot;color: #6a9955;&quot;&gt;&amp;nbsp; &amp;nbsp; )&lt;/span&gt;&lt;/div&gt;&lt;div&gt;&lt;span style=&quot;color: #6a9955;&quot;&gt;&amp;nbsp;* See the Appendix of https://eprint.iacr.org/2021/204 for more detailed description.&lt;/span&gt;&lt;/div&gt;&lt;div&gt;&lt;span style=&quot;color: #6a9955;&quot;&gt;&amp;nbsp;* Requires the computation of a quadratic number of NTTs.&lt;/span&gt;&lt;/div&gt;&lt;/div&gt;" style="text;strokeColor=none;fillColor=none;align=left;verticalAlign=top;spacingLeft=4;spacingRight=4;overflow=hidden;rotatable=0;points=[[0,0.5],[1,0.5]];portConstraint=eastwest;whiteSpace=wrap;html=1;labelBackgroundColor=none;fontColor=#000000;" vertex="1" parent="cAWPv7_ABnVJ44YiWaZB-44">
          <mxGeometry y="26" width="540" height="184" as="geometry" />
        </mxCell>
      </root>
    </mxGraphModel>
  </diagram>
</mxfile>
